<?xml version="1.0" standalone="no"?>
<!DOCTYPE svg PUBLIC "-//W3C//DTD SVG 1.1//EN" "http://www.w3.org/Graphics/SVG/1.1/DTD/svg11.dtd" >
<!--
2013-9-30: Created.
-->
<svg>
<metadata>
Created by iconfont
</metadata>
<defs>

<font id="iconfont" horiz-adv-x="1024" >
  <font-face
    font-family="iconfont"
    font-weight="500"
    font-stretch="normal"
    units-per-em="1024"
    ascent="896"
    descent="-128"
  />
    <missing-glyph />
    
    <glyph glyph-name="x" unicode="x" horiz-adv-x="1001"
d="M281 543q-27 -1 -53 -1h-83q-18 0 -36.5 -6t-32.5 -18.5t-23 -32t-9 -45.5v-76h912v41q0 16 -0.5 30t-0.5 18q0 13 -5 29t-17 29.5t-31.5 22.5t-49.5 9h-133v-97h-438v97zM955 310v-52q0 -23 0.5 -52t0.5 -58t-10.5 -47.5t-26 -30t-33 -16t-31.5 -4.5q-14 -1 -29.5 -0.5
t-29.5 0.5h-32l-45 128h-439l-44 -128h-29h-34q-20 0 -45 1q-25 0 -41 9.5t-25.5 23t-13.5 29.5t-4 30v167h911zM163 247q-12 0 -21 -8.5t-9 -21.5t9 -21.5t21 -8.5q13 0 22 8.5t9 21.5t-9 21.5t-22 8.5zM316 123q-8 -26 -14 -48q-5 -19 -10.5 -37t-7.5 -25t-3 -15t1 -14.5
t9.5 -10.5t21.5 -4h37h67h81h80h64h36q23 0 34 12t2 38q-5 13 -9.5 30.5t-9.5 34.5q-5 19 -11 39h-368zM336 498v228q0 11 2.5 23t10 21.5t20.5 15.5t34 6h188q31 0 51.5 -14.5t20.5 -52.5v-227h-327z" />
    

    
    <glyph glyph-name="align-center" unicode="&#59199;" d="M1024 128v-73.142857q0-14.848-10.825143-25.746286T987.428571 18.285714H36.571429q-14.848 0-25.746286 10.825143T0 54.857143v73.142857q0 14.848 10.825143 25.746286T36.571429 164.571429h950.857142q14.848 0 25.746286-10.825143T1024 128z m-219.428571 219.428571v-73.142857q0-14.848-10.825143-25.746285T768 237.714286h-512q-14.848 0-25.746286 10.825143T219.428571 274.285714v73.142857q0 14.848 10.825143 25.746286T256 384h512q14.848 0 25.746286-10.825143T804.571429 347.428571z m146.285714 219.428572v-73.142857q0-14.848-10.825143-25.746286T914.285714 457.142857h-804.571428q-14.848 0-25.746286 10.825143T73.142857 493.714286v73.142857q0 14.848 10.825143 25.746286T109.714286 603.428571h804.571428q14.848 0 25.746286-10.825142T950.857143 566.857143z m-219.428572 219.428571v-73.142857q0-14.848-10.825142-25.746286T694.857143 676.571429h-365.714286q-14.848 0-25.746286 10.825142T292.571429 713.142857v73.142857q0 14.848 10.825142 25.746286T329.142857 822.857143h365.714286q14.848 0 25.746286-10.825143T731.428571 786.285714z"  horiz-adv-x="1024" />

    
    <glyph glyph-name="align-justify" unicode="&#59200;" d="M1024 128v-73.142857q0-14.848-10.825143-25.746286T987.428571 18.285714H36.571429q-14.848 0-25.746286 10.825143T0 54.857143v73.142857q0 14.848 10.825143 25.746286T36.571429 164.571429h950.857142q14.848 0 25.746286-10.825143T1024 128z m0 219.428571v-73.142857q0-14.848-10.825143-25.746285T987.428571 237.714286H36.571429q-14.848 0-25.746286 10.825143T0 274.285714v73.142857q0 14.848 10.825143 25.746286T36.571429 384h950.857142q14.848 0 25.746286-10.825143T1024 347.428571z m0 219.428572v-73.142857q0-14.848-10.825143-25.746286T987.428571 457.142857H36.571429q-14.848 0-25.746286 10.825143T0 493.714286v73.142857q0 14.848 10.825143 25.746286T36.571429 603.428571h950.857142q14.848 0 25.746286-10.825142T1024 566.857143z m0 219.428571v-73.142857q0-14.848-10.825143-25.746286T987.428571 676.571429H36.571429q-14.848 0-25.746286 10.825142T0 713.142857v73.142857q0 14.848 10.825143 25.746286T36.571429 822.857143h950.857142q14.848 0 25.746286-10.825143T1024 786.285714z"  horiz-adv-x="1024" />

    
    <glyph glyph-name="align-left" unicode="&#59201;" d="M1024 128v-73.142857q0-14.848-10.825143-25.746286T987.428571 18.285714H36.571429q-14.848 0-25.746286 10.825143T0 54.857143v73.142857q0 14.848 10.825143 25.746286T36.571429 164.571429h950.857142q14.848 0 25.746286-10.825143T1024 128z m-219.428571 219.428571v-73.142857q0-14.848-10.825143-25.746285T768 237.714286H36.571429q-14.848 0-25.746286 10.825143T0 274.285714v73.142857q0 14.848 10.825143 25.746286T36.571429 384h731.428571q14.848 0 25.746286-10.825143T804.571429 347.428571z m146.285714 219.428572v-73.142857q0-14.848-10.825143-25.746286T914.285714 457.142857H36.571429q-14.848 0-25.746286 10.825143T0 493.714286v73.142857q0 14.848 10.825143 25.746286T36.571429 603.428571h877.714285q14.848 0 25.746286-10.825142T950.857143 566.857143z m-219.428572 219.428571v-73.142857q0-14.848-10.825142-25.746286T694.857143 676.571429h-658.285714q-14.848 0-25.746286 10.825142T0 713.142857v73.142857q0 14.848 10.825143 25.746286T36.571429 822.857143h658.285714q14.848 0 25.746286-10.825143T731.428571 786.285714z"  horiz-adv-x="1024" />

    
    <glyph glyph-name="align-right" unicode="&#59203;" d="M1024 128v-73.142857q0-14.848-10.825143-25.746286T987.428571 18.285714H36.571429q-14.848 0-25.746286 10.825143T0 54.857143v73.142857q0 14.848 10.825143 25.746286T36.571429 164.571429h950.857142q14.848 0 25.746286-10.825143T1024 128z m0 219.428571v-73.142857q0-14.848-10.825143-25.746285T987.428571 237.714286h-731.428571q-14.848 0-25.746286 10.825143T219.428571 274.285714v73.142857q0 14.848 10.825143 25.746286T256 384h731.428571q14.848 0 25.746286-10.825143T1024 347.428571z m0 219.428572v-73.142857q0-14.848-10.825143-25.746286T987.428571 457.142857h-877.714285q-14.848 0-25.746286 10.825143T73.142857 493.714286v73.142857q0 14.848 10.825143 25.746286T109.714286 603.428571h877.714285q14.848 0 25.746286-10.825142T1024 566.857143z m0 219.428571v-73.142857q0-14.848-10.825143-25.746286T987.428571 676.571429h-658.285714q-14.848 0-25.746286 10.825142T292.571429 713.142857v73.142857q0 14.848 10.825142 25.746286T329.142857 822.857143h658.285714q14.848 0 25.746286-10.825143T1024 786.285714z"  horiz-adv-x="1024" />

    
    <glyph glyph-name="angle-double-down" unicode="&#59210;" d="M797.110857 402.285714q0-7.460571-5.705143-13.165714l-266.313143-266.313143q-5.705143-5.705143-13.165714-5.705143t-13.165714 5.705143L232.448 389.12Q226.742857 394.825143 226.742857 402.285714t5.705143 13.165715l28.598857 28.598857q5.705143 5.705143 13.165714 5.705143t13.165715-5.705143l224.548571-224.548572 224.548572 224.548572q5.705143 5.705143 13.165714 5.705143t13.165714-5.705143l28.598857-28.598857q5.705143-5.705143 5.705143-13.165715z m0 219.428572q0-7.460571-5.705143-13.165715L525.092571 342.235429q-5.705143-5.705143-13.165714-5.705143t-13.165714 5.705143L232.448 608.548571Q226.742857 614.253714 226.742857 621.714286t5.705143 13.165714l28.598857 28.598857q5.705143 5.705143 13.165714 5.705143t13.165715-5.705143l224.548571-224.548571 224.548572 224.548571q5.705143 5.705143 13.165714 5.705143t13.165714-5.705143l28.598857-28.598857q5.705143-5.705143 5.705143-13.165714z"  horiz-adv-x="1024" />

    
    <glyph glyph-name="angle-down" unicode="&#59211;" d="M797.110857 475.428571q0-7.460571-5.705143-13.165714L525.092571 195.949714q-5.705143-5.705143-13.165714-5.705143t-13.165714 5.705143L232.448 462.262857Q226.742857 467.968 226.742857 475.428571t5.705143 13.165715l28.598857 28.598857q5.705143 5.705143 13.165714 5.705143t13.165715-5.705143l224.548571-224.548572 224.548572 224.548572q5.705143 5.705143 13.165714 5.705143t13.165714-5.705143l28.598857-28.598857q5.705143-5.705143 5.705143-13.165715z"  horiz-adv-x="1024" />

    
    <glyph glyph-name="angle-double-left" unicode="&#59212;" d="M534.785097 109.714286q0-7.460571-5.705143-13.165715l-28.598857-28.598857q-5.705143-5.705143-13.165714-5.705143t-13.165714 5.705143L207.836526 334.262857Q202.131383 339.968 202.131383 347.428571t5.705143 13.165715l266.313143 266.313143q5.705143 5.705143 13.165714 5.705142t13.165714-5.705142l28.598857-28.598858q5.705143-5.705143 5.705143-13.165714t-5.705143-13.165714L304.531383 347.428571l224.548571-224.548571q5.705143-5.705143 5.705143-13.165714z m219.428572 0q0-7.460571-5.705143-13.165715l-28.598857-28.598857q-5.705143-5.705143-13.165715-5.705143t-13.165714 5.705143L427.265097 334.262857q-5.705143 5.705143-5.705143 13.165714t5.705143 13.165715l266.313143 266.313143q5.705143 5.705143 13.165714 5.705142t13.165715-5.705142l28.598857-28.598858q5.705143-5.705143 5.705143-13.165714t-5.705143-13.165714L523.959954 347.428571l224.548572-224.548571q5.705143-5.705143 5.705143-13.165714z"  horiz-adv-x="1024" />

    
    <glyph glyph-name="angle-right" unicode="&#59213;" d="M635.356526 347.428571q0-7.460571-5.705143-13.165714L363.33824 67.949714q-5.705143-5.705143-13.165714-5.705143t-13.165715 5.705143l-28.598857 28.598857Q302.702811 102.253714 302.702811 109.714286t5.705143 13.165714l224.548572 224.548571-224.548572 224.548572Q302.702811 577.682286 302.702811 585.142857t5.705143 13.165714l28.598857 28.598858q5.705143 5.705143 13.165715 5.705142t13.165714-5.705142L629.651383 360.594286q5.705143-5.705143 5.705143-13.165715z"  horiz-adv-x="1024" />

    
    <glyph glyph-name="angle-double-up" unicode="&#59214;" d="M788.747703 146.285714q0-7.460571-5.705143-13.165714l-28.598857-28.598857q-5.705143-5.705143-13.165714-5.705143t-13.165715 5.705143l-224.548571 224.548571-224.548572-224.548571q-5.705143-5.705143-13.165714-5.705143t-13.165714 5.705143l-28.598857 28.598857Q218.379703 138.825143 218.379703 146.285714t5.705143 13.165715l266.313143 266.313142q5.705143 5.705143 13.165714 5.705143t13.165714-5.705143L783.04256 159.451429q5.705143-5.705143 5.705143-13.165715z m0 219.428572q0-7.460571-5.705143-13.165715l-28.598857-28.598857q-5.705143-5.705143-13.165714-5.705143t-13.165715 5.705143l-224.548571 224.548572-224.548572-224.548572q-5.705143-5.705143-13.165714-5.705143t-13.165714 5.705143L224.084846 352.548571Q218.379703 358.253714 218.379703 365.714286t5.705143 13.165714l266.313143 266.313143q5.705143 5.705143 13.165714 5.705143t13.165714-5.705143L783.04256 378.88q5.705143-5.705143 5.705143-13.165714z"  horiz-adv-x="1024" />

    
    <glyph glyph-name="angle-double-right" unicode="&#59215;" d="M559.396571 347.428571q0-7.460571-5.705142-13.165714L287.378286 67.949714q-5.705143-5.705143-13.165715-5.705143t-13.165714 5.705143l-28.598857 28.598857Q226.742857 102.253714 226.742857 109.714286t5.705143 13.165714l224.548571 224.548571-224.548571 224.548572Q226.742857 577.682286 226.742857 585.142857t5.705143 13.165714l28.598857 28.598858q5.705143 5.705143 13.165714 5.705142t13.165715-5.705142L553.691429 360.594286q5.705143-5.705143 5.705142-13.165715z m219.428572 0q0-7.460571-5.705143-13.165714l-266.313143-266.313143q-5.705143-5.705143-13.165714-5.705143t-13.165714 5.705143l-28.598858 28.598857q-5.705143 5.705143-5.705142 13.165715t5.705142 13.165714l224.548572 224.548571-224.548572 224.548572Q446.171429 577.682286 446.171429 585.142857t5.705142 13.165714l28.598858 28.598858q5.705143 5.705143 13.165714 5.705142t13.165714-5.705142L773.12 360.594286q5.705143-5.705143 5.705143-13.165715z"  horiz-adv-x="1024" />

    
    <glyph glyph-name="angle-left" unicode="&#59216;" d="M595.743086 585.142857q0-7.460571-5.705143-13.165714L365.489371 347.428571l224.548572-224.548571q5.705143-5.705143 5.705143-13.165714t-5.705143-13.165715l-28.598857-28.598857q-5.705143-5.705143-13.165715-5.705143t-13.165714 5.705143L268.794514 334.262857Q263.089371 339.968 263.089371 347.428571t5.705143 13.165715l266.313143 266.313143q5.705143 5.705143 13.165714 5.705142t13.165715-5.705142l28.598857-28.598858q5.705143-5.705143 5.705143-13.165714z"  horiz-adv-x="1024" />

    
    <glyph glyph-name="angle-up" unicode="&#59217;" d="M797.110857 219.428571q0-7.460571-5.705143-13.165714l-28.598857-28.598857q-5.705143-5.705143-13.165714-5.705143t-13.165714 5.705143l-224.548572 224.548571-224.548571-224.548571q-5.705143-5.705143-13.165715-5.705143t-13.165714 5.705143L232.448 206.262857Q226.742857 211.968 226.742857 219.428571t5.705143 13.165715l266.313143 266.313143q5.705143 5.705143 13.165714 5.705142t13.165714-5.705142L791.405714 232.594286q5.705143-5.705143 5.705143-13.165715z"  horiz-adv-x="1024" />

    
    <glyph glyph-name="area-chart" unicode="&#59218;" d="M1170.285714 18.285714v-73.142857H0V822.857143h73.142857v-804.571429h1097.142857z m-219.428571 585.142857l146.285714-512H146.285714V420.571429L402.285714 749.714286 731.428571 420.571429z"  horiz-adv-x="1170" />

    
    <glyph glyph-name="arrow-circle-down" unicode="&#59219;" d="M806.912 383.414857q0 15.433143-10.313143 25.746286l-52.004571 52.004571q-10.313143 10.313143-25.746286 10.313143t-25.746286-10.313143L585.069714 353.133714V640q0 14.848-10.825143 25.746286T548.498286 676.571429h-73.142857q-14.848 0-25.746286-10.825143t-10.825143-25.746286v-286.866286L330.752 461.165714q-10.825143 10.825143-25.746286 10.825143t-25.746285-10.825143l-52.004572-52.004571q-10.313143-10.313143-10.313143-25.746286t10.313143-25.746286l258.852572-258.852571q10.313143-10.313143 25.746285-10.313143t25.746286 10.313143L796.452571 357.668571q10.313143 10.313143 10.313143 25.746286zM950.930286 384q0-119.442286-58.88-220.306286t-159.744-159.744-220.306286-58.88-220.306286 58.88-159.744 159.744T73.069714 384t58.88 220.306286 159.744 159.744T512 822.930286t220.306286-58.88 159.744-159.744T950.930286 384z"  horiz-adv-x="1024" />

    
    <glyph glyph-name="arrow-circle-o-down" unicode="&#59220;" d="M713.216 365.714286q0-6.875429-5.705143-13.677715L525.238857 169.764571q-6.290286-5.12-13.165714-5.12t-13.165714 5.12l-182.857143 182.857143q-8.557714 9.142857-4.022857 19.968Q316.562286 384 329.142857 384h109.714286V585.142857q0 7.972571 5.12 13.165714t13.165714 5.12h109.714286q7.972571 0 13.165714-5.12t5.12-13.165714V384h109.714286q7.972571 0 13.165714-5.12t5.12-13.165714zM512.073143 694.857143q-84.553143 0-156.013714-41.691429T242.907429 540.013714 201.216 384t41.691429-156.013714 113.152-113.152T512.073143 73.142857t156.013714 41.691429T781.238857 227.986286 822.930286 384t-41.691429 156.013714T668.086857 653.165714 512.073143 694.857143zM950.930286 384q0-119.442286-58.88-220.306286t-159.744-159.744-220.306286-58.88-220.306286 58.88-159.744 159.744T73.069714 384t58.88 220.306286 159.744 159.744T512 822.930286t220.306286-58.88 159.744-159.744T950.930286 384z"  horiz-adv-x="1024" />

    
    <glyph glyph-name="arrow-circle-o-left" unicode="&#59222;" d="M731.501714 438.857143v-109.714286q0-7.460571-5.412571-12.873143T713.216 310.857143H512.073143v-109.714286q0-7.972571-5.12-13.165714t-13.165714-5.12q-6.875429 0-13.677715 5.705143L297.837714 370.834286q-5.12 5.12-5.12 13.165714t5.12 13.165714l182.857143 182.857143q5.12 5.12 13.165714 5.12 7.460571 0 12.873143-5.412571t5.412572-12.873143V457.142857h201.142857q7.460571 0 12.873143-5.412571t5.412571-12.873143z m91.428572-54.857143q0 84.553143-41.691429 156.013714T668.086857 653.165714 512.073143 694.857143t-156.013714-41.691429T242.907429 540.013714 201.216 384t41.691429-156.013714 113.152-113.152T512.073143 73.142857t156.013714 41.691429T781.238857 227.986286 822.930286 384zM950.930286 384q0-119.442286-58.88-220.306286t-159.744-159.744-220.306286-58.88-220.306286 58.88-159.744 159.744T73.069714 384t58.88 220.306286 159.744 159.744T512 822.930286t220.306286-58.88 159.744-159.744T950.930286 384z"  horiz-adv-x="1024" />

    
    <glyph glyph-name="arrow-circle-o-right" unicode="&#59224;" d="M731.501714 384q0-7.972571-5.12-13.165714l-182.857143-182.857143q-5.12-5.12-13.165714-5.12-7.460571 0-12.873143 5.412571T512.073143 201.142857V310.857143H310.930286q-7.460571 0-12.873143 5.412571T292.644571 329.142857v109.714286q0 7.460571 5.412572 12.873143T310.930286 457.142857H512.073143V566.857143q0 7.972571 5.12 13.165714t13.165714 5.12q6.875429 0 13.677714-5.705143L726.308571 397.165714q5.12-5.12 5.12-13.165714z m91.428572 0q0 84.553143-41.691429 156.013714T668.086857 653.165714 512.073143 694.857143t-156.013714-41.691429T242.907429 540.013714 201.216 384t41.691429-156.013714 113.152-113.152T512.073143 73.142857t156.013714 41.691429T781.238857 227.986286 822.930286 384zM950.930286 384q0-119.442286-58.88-220.306286t-159.744-159.744-220.306286-58.88-220.306286 58.88-159.744 159.744T73.069714 384t58.88 220.306286 159.744 159.744T512 822.930286t220.306286-58.88 159.744-159.744T950.930286 384z"  horiz-adv-x="1024" />

    
    <glyph glyph-name="arrow-circle-o-up" unicode="&#59225;" d="M712.045714 395.410286Q707.510857 384 694.930286 384H585.216v-201.142857q0-7.972571-5.12-13.165714t-13.165714-5.12h-109.714286q-7.972571 0-13.165714 5.12T438.930286 182.857143V384H329.216q-7.972571 0-13.165714 5.12t-5.12 13.165714q0 6.875429 5.705143 13.677715L498.907429 598.235429q6.290286 5.12 13.165714 5.12t13.165714-5.12l182.857143-182.857143q8.557714-9.142857 4.022857-19.968zM512.073143 694.857143q-84.553143 0-156.013714-41.691429T242.907429 540.013714 201.216 384t41.691429-156.013714 113.152-113.152T512.073143 73.142857t156.013714 41.691429T781.238857 227.986286 822.930286 384t-41.691429 156.013714T668.086857 653.165714 512.073143 694.857143zM950.930286 384q0-119.442286-58.88-220.306286t-159.744-159.744-220.306286-58.88-220.306286 58.88-159.744 159.744T73.069714 384t58.88 220.306286 159.744 159.744T512 822.930286t220.306286-58.88 159.744-159.744T950.930286 384z"  horiz-adv-x="1024" />

    
    <glyph glyph-name="arrow-circle-left" unicode="&#59226;" d="M804.644571 347.428571v73.142858q0 14.848-10.825142 25.746285T768.073143 457.142857H481.206857l108.032 108.032q10.825143 10.825143 10.825143 25.746286t-10.825143 25.746286l-52.004571 52.004571q-10.313143 10.313143-25.746286 10.313143t-25.746286-10.313143L226.889143 409.819429q-10.313143-10.313143-10.313143-25.746286t10.313143-25.746286L485.741714 99.474286q10.313143-10.313143 25.746286-10.313143t25.746286 10.313143l52.004571 52.004571q10.313143 10.313143 10.313143 25.746286t-10.313143 25.746286L481.206857 311.003429H768.073143q14.848 0 25.746286 10.825142T804.644571 347.574857z m146.285715 36.571429q0-119.442286-58.88-220.306286t-159.744-159.744-220.306286-58.88-220.306286 58.88-159.744 159.744T73.069714 384t58.88 220.306286 159.744 159.744T512 822.930286t220.306286-58.88 159.744-159.744T950.930286 384z"  horiz-adv-x="1024" />

    
    <glyph glyph-name="arrow-circle-right" unicode="&#59227;" d="M807.497143 384q0 15.433143-10.313143 25.746286L538.331429 668.598857q-10.313143 10.313143-25.746286 10.313143t-25.746286-10.313143l-52.004571-52.004571q-10.313143-10.313143-10.313143-25.746286t10.313143-25.746286l108.032-108.032H256q-14.848 0-25.746286-10.825143t-10.825143-25.746285v-73.142857q0-14.848 10.825143-25.746286t25.746286-10.825143h286.866286L434.834286 202.752q-10.825143-10.825143-10.825143-25.746286t10.825143-25.746285l52.004571-52.004572q10.313143-10.313143 25.746286-10.313143t25.746286 10.313143l258.852571 258.852572q10.313143 10.313143 10.313143 25.746285zM950.930286 384q0-119.442286-58.88-220.306286t-159.744-159.744-220.306286-58.88-220.306286 58.88-159.744 159.744T73.069714 384t58.88 220.306286 159.744 159.744T512 822.930286t220.306286-58.88 159.744-159.744T950.930286 384z"  horiz-adv-x="1024" />

    
    <glyph glyph-name="arrow-circle-up" unicode="&#59228;" d="M806.912 384.585143q0 15.433143-10.313143 25.746286L537.746286 669.184q-10.313143 10.313143-25.746286 10.313143t-25.746286-10.313143L227.401143 410.331429q-10.313143-10.313143-10.313143-25.746286t10.313143-25.746286l52.004571-52.004571q10.313143-10.313143 25.746286-10.313143t25.746286 10.313143L438.930286 414.866286V128q0-14.848 10.825143-25.746286T475.501714 91.428571h73.142857q14.848 0 25.746286 10.825143T585.216 128V414.866286l108.032-108.032q10.825143-10.825143 25.746286-10.825143t25.746285 10.825143l52.004572 52.004571q10.313143 10.313143 10.313143 25.746286zM950.930286 384q0-119.442286-58.88-220.306286t-159.744-159.744-220.306286-58.88-220.306286 58.88-159.744 159.744T73.069714 384t58.88 220.306286 159.744 159.744T512 822.930286t220.306286-58.88 159.744-159.744T950.930286 384z"  horiz-adv-x="1024" />

    
    <glyph glyph-name="arrow-down" unicode="&#59229;" d="M957.147429 420.571429q0-30.281143-21.138286-51.419429l-372.004572-372.589714q-22.308571-21.138286-52.004571-21.138286-30.281143 0-51.419429 21.138286L88.576 369.152Q66.852571 389.705143 66.852571 420.571429q0 30.281143 21.723429 52.004571l42.276571 42.861714q22.308571 21.138286 52.004572 21.138286 30.281143 0 51.419428-21.138286L402.285714 347.428571V749.714286q0 29.696 21.723429 51.419428T475.428571 822.857143h73.142858q29.696 0 51.419428-21.723429T621.714286 749.714286v-402.285715l168.009143 168.009143q21.138286 21.138286 51.419428 21.138286 29.696 0 52.004572-21.138286l42.861714-42.861714q21.138286-22.308571 21.138286-52.004571z"  horiz-adv-x="1024" />

    
    <glyph glyph-name="arrow-right" unicode="&#59230;" d="M932.425143 347.428571q0-30.866286-21.138286-52.004571l-372.004571-372.004571q-22.308571-21.138286-52.004572-21.138286-29.110857 0-51.419428 21.138286l-42.861715 42.861714q-21.723429 21.723429-21.723428 52.004571t21.723428 52.004572L560.420571 237.714286h-402.285714q-29.696 0-48.274286 21.430857T91.282286 310.857143V384q0 30.281143 18.578285 51.712T158.134857 457.142857h402.285714L392.996571 625.152Q371.273143 645.705143 371.273143 676.571429t21.723428 51.419428l42.861715 42.861714q21.723429 21.723429 51.419428 21.723429 30.281143 0 52.004572-21.723429l372.004571-372.004571q21.138286-19.968 21.138286-51.419429z"  horiz-adv-x="1024" />

    
    <glyph glyph-name="arrow-up" unicode="&#59231;" d="M957.147429 341.138286q0-29.110857-21.138286-51.419429l-42.861714-42.861714q-21.723429-21.723429-52.004572-21.723429-30.866286 0-51.419428 21.723429L621.714286 414.281143v-402.285714q0-29.696-21.430857-48.274286T548.571429-54.857143H475.428571q-30.281143 0-51.712 18.578286T402.285714 11.995429v402.285714L234.276571 246.857143q-20.553143-21.723429-51.419428-21.723429t-51.419429 21.723429l-42.861714 42.861714q-21.723429 21.723429-21.723429 51.419429 0 30.281143 21.723429 52.004571l372.004571 372.004572Q480.548571 786.285714 512 786.285714q30.866286 0 52.004571-21.138285l372.004572-372.004572q21.138286-22.308571 21.138286-52.004571z"  horiz-adv-x="1024" />

    
    <glyph glyph-name="arrow-left" unicode="&#59232;" d="M914.285714 384v-73.142857q0-30.281143-18.578285-51.712t-48.274286-21.430857h-402.285714l167.424-168.009143q21.723429-20.553143 21.723428-51.419429t-21.723428-51.419428l-42.861715-43.446857q-21.138286-21.138286-51.419428-21.138286-29.696 0-52.004572 21.138286L94.281143 296.009143Q73.142857 317.147429 73.142857 347.428571q0 29.696 21.138286 52.004572l372.004571 371.419428q21.723429 21.723429 52.004572 21.723429 29.696 0 51.419428-21.723429l42.861715-42.276571q21.723429-21.723429 21.723428-52.004571t-21.723428-52.004572L445.147429 457.142857h402.285714q29.696 0 48.274286-21.430857T914.285714 384z"  horiz-adv-x="1024" />

    
    <glyph glyph-name="arrows-alt" unicode="&#59233;" d="M797.361737 586.825143L594.536594 384l202.825143-202.825143 82.285714 82.285714q16.603429 17.700571 40.009143 7.972572Q941.965166 261.705143 941.965166 237.714286v-256q0-14.848-10.825143-25.746286T905.393737-54.857143H649.393737q-23.990857 0-33.718857 22.820572-9.728 22.308571 7.972571 39.424l82.285715 82.285714L503.108023 292.498286l-202.825143-202.825143 82.285714-82.285714q17.700571-17.115429 7.972572-39.424Q380.813166-54.857143 356.822309-54.857143H100.822309q-14.848 0-25.746286 10.825143T64.25088-18.285714V237.714286q0 23.990857 22.820571 33.718857 22.308571 9.728 39.424-7.972572l82.285715-82.285714L411.606309 384 208.781166 586.825143 126.495451 504.539429Q115.670309 493.714286 100.749166 493.714286q-6.875429 0-13.677715 2.852571Q64.25088 506.294857 64.25088 530.285714V786.285714q0 14.848 10.825143 25.746286T100.822309 822.857143H356.822309q23.990857 0 33.718857-22.820572 9.728-22.308571-7.972572-39.424L300.28288 678.326857 503.108023 475.501714l202.825143 202.825143-82.285715 82.285714q-17.700571 17.115429-7.972571 39.424Q625.40288 822.857143 649.393737 822.857143h256q14.848 0 25.746286-10.825143T941.965166 786.285714V530.285714q0-23.990857-22.308572-33.718857-7.460571-2.852571-14.262857-2.852571-14.848 0-25.746286 10.825143z"  horiz-adv-x="1024" />

    
    <glyph glyph-name="arrows-h" unicode="&#59234;" d="M1024 384q0-14.848-10.825143-25.746286l-146.285714-146.285714q-10.825143-10.825143-25.746286-10.825143t-25.746286 10.825143T804.571429 237.714286V310.857143H219.428571v-73.142857q0-14.848-10.825142-25.746286T182.857143 201.142857t-25.746286 10.825143l-146.285714 146.285714Q0 369.078857 0 384t10.825143 25.746286l146.285714 146.285714Q167.936 566.857143 182.857143 566.857143t25.746286-10.825143T219.428571 530.285714v-73.142857h585.142858V530.285714q0 14.848 10.825142 25.746286T841.142857 566.857143t25.746286-10.825143l146.285714-146.285714Q1024 398.921143 1024 384z"  horiz-adv-x="1024" />

    
    <glyph glyph-name="arrows-v" unicode="&#59235;" d="M614.998674 713.142857q0-14.848-10.825143-25.746286T578.427246 676.571429H505.284389v-585.142858h73.142857q14.848 0 25.746285-10.825142t10.825143-25.746286-10.825143-25.746286l-146.285714-146.285714Q447.062674-128 432.141531-128t-25.746285 10.825143l-146.285715 146.285714Q249.284389 39.936 249.284389 54.857143t10.825142 25.746286T285.855817 91.428571h73.142857V676.571429H285.855817q-14.848 0-25.746286 10.825142T249.284389 713.142857t10.825142 25.746286l146.285715 146.285714Q417.220389 896 432.141531 896t25.746286-10.825143l146.285714-146.285714q10.825143-10.825143 10.825143-25.746286z"  horiz-adv-x="1024" />

    
    <glyph glyph-name="arrows" unicode="&#59236;" d="M1024 384q0-14.848-10.825143-25.746286l-146.285714-146.285714q-10.825143-10.825143-25.746286-10.825143t-25.746286 10.825143T804.571429 237.714286V310.857143H585.142857v-219.428572h73.142857q14.848 0 25.746286-10.825142t10.825143-25.746286-10.825143-25.746286l-146.285714-146.285714Q526.921143-128 512-128t-25.746286 10.825143l-146.285714 146.285714Q329.142857 39.936 329.142857 54.857143t10.825143 25.746286T365.714286 91.428571h73.142857V310.857143H219.428571v-73.142857q0-14.848-10.825142-25.746286T182.857143 201.142857t-25.746286 10.825143l-146.285714 146.285714Q0 369.078857 0 384t10.825143 25.746286l146.285714 146.285714Q167.936 566.857143 182.857143 566.857143t25.746286-10.825143T219.428571 530.285714v-73.142857h219.428572V676.571429H365.714286q-14.848 0-25.746286 10.825142T329.142857 713.142857t10.825143 25.746286l146.285714 146.285714Q497.078857 896 512 896t25.746286-10.825143l146.285714-146.285714q10.825143-10.825143 10.825143-25.746286t-10.825143-25.746286T658.285714 676.571429H585.142857v-219.428572h219.428572V530.285714q0 14.848 10.825142 25.746286T841.142857 566.857143t25.746286-10.825143l146.285714-146.285714Q1024 398.921143 1024 384z"  horiz-adv-x="1024" />

    
    <glyph glyph-name="at" unicode="&#59239;" d="M628.589714 453.12q0 61.732571-30.573714 96.548571t-84.260571 34.889143q-35.986286 0-70.875429-17.408t-62.829714-48.274285-45.421715-78.262858-17.408-102.838857q0-64 30.573715-98.889143t86.016-34.889142q54.857143 0 100.571428 38.034285t69.997715 94.866286 24.283428 116.297143zM950.857143 384q0-63.414857-21.138286-112.566857t-56.32-77.165714-75.117714-42.569143-82.870857-15.725715q-3.437714 0-8.850286-0.292571t-9.435429-0.292571q-54.272 0-81.115428 30.281142-16.018286 18.870857-18.870857 47.396572-29.696-37.741714-75.117715-62.829714t-99.108571-25.161143q-92.013714 0-142.555429 54.564571t-50.541714 153.965714q0 89.746286 37.741714 165.741715t102.253715 120.32 140.580571 44.251428q49.737143 0 88.576-20.260571t60.562286-56.832l1.170286 10.825143 6.290285 32.036571q0.585143 3.437714 3.145143 6.875429t5.412572 3.437714h67.437714q2.852571 0 7.460571-6.290286 2.852571-2.852571 1.682286-9.142857l-68.534857-350.866286q-2.852571-13.677714-2.852572-27.428571 0-22.308571 7.168-29.696t25.453715-7.460571q16.018286 0.585143 32.548571 3.145142t41.691429 13.677715 44.032 28.598857 32.548571 51.126857 13.677714 78.262857q0 166.838857-99.401142 266.313143T512.146286 749.641143q-74.313143 0-141.970286-29.110857T253.586286 642.56 175.616 525.970286 146.505143 384t29.110857-141.970286 77.970286-116.589714 116.589714-77.970286 141.970286-29.110857q130.267429 0 231.424 82.285714 6.290286 5.12 13.677714 4.534858t11.995429-6.875429l23.405714-28.013714q4.534857-6.875429 4.022857-13.677715-1.170286-7.460571-6.875429-12.580571-58.294857-47.396571-129.974857-73.142857T512.073143-54.857143q-89.161143 0-170.276572 34.889143t-139.995428 93.696T108.105143 213.723429 73.216 384t34.889143 170.276571 93.696 139.995429 139.995428 93.696T512.073143 822.857143q196.534857 0 317.732571-121.124572T950.930286 384z"  horiz-adv-x="1024" />

    
    <glyph glyph-name="ban" unicode="&#59243;" d="M822.857143 385.682286q0 92.013714-49.737143 168.594285l-430.884571-430.299428q78.262857-50.834286 169.691428-50.834286 63.414857 0 120.832 24.868572T731.867429 164.571429t66.267428 99.693714 24.576 121.417143zM251.977143 214.820571l431.396571 430.884572q-77.165714 52.004571-171.446857 52.004571-84.553143 0-156.013714-41.691428T242.761143 542.281143t-41.691429-156.598857q0-92.598857 50.834286-170.861715zM950.857143 385.682286q0-89.746286-34.889143-171.446857t-93.403429-140.580572-139.995428-93.696T512-54.930286t-170.569143 34.889143-139.995428 93.696T108.032 214.235429 73.142857 385.682286t34.889143 171.154285 93.403429 140.288 139.995428 93.696T512 825.709714t170.569143-34.889143 139.995428-93.696 93.403429-140.288 34.889143-171.154285z"  horiz-adv-x="1024" />

    
    <glyph glyph-name="bar-chart" unicode="&#59246;" d="M365.714286 384v-292.571429H219.428571V384h146.285715z m219.428571 292.571429v-585.142858H438.857143V676.571429h146.285714z m585.142857-658.285715v-73.142857H0V822.857143h73.142857v-804.571429h1097.142857z m-365.714285 512v-438.857143H658.285714V530.285714h146.285715z m219.428571 219.428572v-658.285715h-146.285714V749.714286h146.285714z"  horiz-adv-x="1170" />

    
    <glyph glyph-name="barcode" unicode="&#59247;" d="M35.986286 18.285714H0V822.857143h35.986286v-804.571429z m35.986285 0.585143h-18.285714V822.857143h18.285714v-803.986286z m53.76 0h-17.700571V822.857143h17.700571v-803.986286z m89.673143 0h-17.700571V822.857143h17.700571v-803.986286z m89.746286 0h-35.401143V822.857143h35.401143v-803.986286z m71.972571 0h-17.700571V822.857143h17.700571v-803.986286z m35.986286 0h-17.700571V822.857143h17.700571v-803.986286z m36.059429 0h-17.700572V822.857143h17.700572v-803.986286z m89.673143 0h-35.986286V822.857143h35.986286v-803.986286z m89.746285 0h-35.986285V822.857143h35.986285v-803.986286z m71.972572 0h-35.986286V822.857143h35.986286v-803.986286z m71.972571 0h-35.986286V822.857143h35.986286v-803.986286z m53.76 0h-35.986286V822.857143h35.986286v-803.986286z m107.958857 0h-53.686857V822.857143h53.686857v-803.986286z m36.059429 0h-18.285714V822.857143h18.285714v-803.986286zM1024 18.285714h-35.986286V822.857143H1024v-804.571429z"  horiz-adv-x="1024" />

    
    <glyph glyph-name="bars" unicode="&#59248;" d="M950.857143 128v-73.142857q0-14.848-10.825143-25.746286T914.285714 18.285714H109.714286q-14.848 0-25.746286 10.825143T73.142857 54.857143v73.142857q0 14.848 10.825143 25.746286T109.714286 164.571429h804.571428q14.848 0 25.746286-10.825143T950.857143 128z m0 292.571429v-73.142858q0-14.848-10.825143-25.746285T914.285714 310.857143H109.714286q-14.848 0-25.746286 10.825143T73.142857 347.428571v73.142858q0 14.848 10.825143 25.746285T109.714286 457.142857h804.571428q14.848 0 25.746286-10.825143T950.857143 420.571429z m0 292.571428v-73.142857q0-14.848-10.825143-25.746286T914.285714 603.428571H109.714286q-14.848 0-25.746286 10.825143T73.142857 640v73.142857q0 14.848 10.825143 25.746286T109.714286 749.714286h804.571428q14.848 0 25.746286-10.825143T950.857143 713.142857z"  horiz-adv-x="1024" />

    
    <glyph glyph-name="bold" unicode="&#59272;" d="M426.861714 26.843429q42.276571-18.285714 80.018286-18.285715 214.820571 0 214.820571 191.414857 0 65.170286-23.405714 102.838858-15.433143 25.161143-35.108571 42.276571t-38.546286 26.550857-46.006857 14.262857-47.981714 5.997715-53.979429 1.170285q-41.691429 0-57.709714-5.705143 0-30.281143-0.292572-90.843428T418.377143 206.262857l-0.585143-38.546286q-0.585143-34.011429-0.292571-55.149714t2.56-47.689143 6.875428-38.034285z m-7.972571 426.276571q23.990857-4.022857 62.317714-4.022857 46.884571 0 81.700572 7.460571t62.829714 25.453715 42.569143 51.126857 14.555428 81.115428q0 40.009143-16.603428 69.997715t-45.129143 46.884571-61.732572 24.868571-70.875428 7.972572q-28.598857 0-74.313143-7.460572 0-28.598857 2.267429-86.308571t2.267428-86.820571q0-15.433143-0.292571-45.714286t-0.292572-45.129143q0-26.258286 0.585143-39.424zM109.714286-54.857143l1.170285 53.686857q8.557714 2.267429 48.566858 9.142857t60.562285 15.433143q4.022857 6.875429 7.168 15.433143t4.827429 19.163429 3.145143 18.578285 1.682285 21.430858 0.292572 19.456v37.449142q0 561.152-12.580572 585.728-2.267429 4.534857-12.580571 8.265143t-25.453714 6.290286-28.306286 4.022857-27.721143 2.56-17.408 1.682286l-2.267428 47.396571q56.027429 1.170286 194.267428 6.582857T518.217143 822.857143q13.165714 0 39.131428-0.292572t38.546286-0.292571q40.009143 0 77.970286-7.460571t73.435428-23.990858 61.732572-40.594285 42.276571-59.684572 16.018286-78.555428q0-29.696-9.435429-54.564572t-22.308571-41.179428-36.864-32.841143-41.691429-25.746286-47.981714-22.820571q87.990857-19.968 146.578286-76.580572t58.587428-141.677714q0-57.124571-19.968-102.546286t-53.394285-74.605714-78.848-48.859429-93.403429-27.721142-100.571428-7.972572q-25.161143 0-75.410286 1.682286t-75.410286 1.682286q-60.562286 0-175.396571-6.290286t-132.022857-6.875429z"  horiz-adv-x="1024" />

    
    <glyph glyph-name="bookmark-o" unicode="&#59276;" d="M770.892434 749.714286H185.749577v-709.705143l292.571429 280.576 50.834285-48.566857L770.892434 40.009143V749.714286z m6.875429 73.142857q13.165714 0 25.161143-5.12 18.870857-7.460571 29.988571-23.405714t11.117714-35.401143v-736.548572q0-19.456-11.117714-35.401143t-29.988571-23.405714q-10.825143-4.534857-25.161143-4.534857-27.428571 0-47.396572 18.285714L478.394149 219.648 226.417006-22.674286q-20.553143-18.870857-47.396572-18.870857-13.165714 0-25.161143 5.12-18.870857 7.460571-29.988571 23.405714t-11.117714 35.401143V758.930286q0 19.456 11.117714 35.401143t29.988571 23.405714Q165.85472 822.857143 179.020434 822.857143h598.820572z"  horiz-adv-x="1024" />

    
    <glyph glyph-name="bookmark" unicode="&#59277;" d="M777.767863 822.857143q13.165714 0 25.161143-5.12 18.870857-7.460571 29.988571-23.405714t11.117714-35.401143v-736.548572q0-19.456-11.117714-35.401143t-29.988571-23.405714q-10.825143-4.534857-25.161143-4.534857-27.428571 0-47.396572 18.285714L478.394149 219.648 226.417006-22.674286q-20.553143-18.870857-47.396572-18.870857-13.165714 0-25.161143 5.12-18.870857 7.460571-29.988571 23.405714t-11.117714 35.401143V758.930286q0 19.456 11.117714 35.401143t29.988571 23.405714Q165.85472 822.857143 179.020434 822.857143h598.820572z"  horiz-adv-x="1024" />

    
    <glyph glyph-name="bullhorn" unicode="&#59282;" d="M950.857143 530.285714q30.281143 0 51.712-21.430857T1024 457.142857t-21.430857-51.712T950.857143 384v-219.428571q0-29.696-21.723429-51.419429T877.714286 91.428571Q639.414857 289.718857 413.696 308.589714q-33.133714-10.825143-52.004571-37.741714t-17.700572-57.417143 22.820572-52.882286q-11.410286-18.870857-13.165715-37.449142t3.437715-33.133715 19.163428-31.451428 27.428572-28.598857 35.108571-28.891429q-16.603429-33.133714-63.707429-47.396571t-96.256-6.582858-75.410285 31.744q-4.022857 13.165714-16.822857 50.029715t-18.285715 53.979428-13.165714 50.834286-8.557714 57.709714 1.974857 56.32 12.580571 63.122286H91.428571q-37.741714 0-64.585142 26.843429T0 402.212571v109.714286q0 37.741714 26.843429 64.585143t64.585142 26.843429H365.714286q248.539429 0 512 219.428571 29.696 0 51.419428-21.723429t21.723429-51.419428v-219.428572z m-73.142857-345.161143V730.258286q-225.133714-172.544-438.857143-196.022857v-154.258286q215.405714-23.990857 438.857143-194.852572z"  horiz-adv-x="1024" />

    
    <glyph glyph-name="cab" unicode="&#59287;" d="M1042.285714 384q53.174857 0 90.550857-37.449143T1170.285714 256v-219.428571q0-7.972571-5.12-13.165715t-13.165714-5.12H1097.142857v-36.571428q0-45.714286-32.036571-77.677715T987.428571-128t-77.677714 32.036571T877.714286-18.285714V18.285714H292.571429v-36.571428q0-45.714286-32.036572-77.677715T182.857143-128t-77.677714 32.036571T73.142857-18.285714V18.285714H18.285714q-7.972571 0-13.165714 5.12T0 36.571429v219.428571q0 53.174857 37.449143 90.550857T128 384h16.018286l59.977143 239.396571q13.165714 53.686857 59.465142 89.965715T365.714286 749.641143h73.142857V877.641143q0 7.972571 5.12 13.165714t13.165714 5.12h256q7.972571 0 13.165714-5.12t5.12-13.165714v-128h73.142858q56.027429 0 102.253714-36.278857t59.465143-89.965715L1026.267429 384h16.018285zM182.857143 109.714286q37.741714 0 64.585143 26.843428T274.285714 201.142857t-26.843428 64.585143T182.857143 292.571429t-64.585143-26.843429-26.843429-64.585143 26.843429-64.585143 64.585143-26.843428zM294.838857 384h580.534857l-50.834285 203.995429q-1.170286 4.534857-7.972572 10.020571T804.571429 603.428571H365.714286q-5.12 0-11.995429-5.412571t-7.972571-10.020571z m692.589714-274.285714q37.741714 0 64.585143 26.843428t26.843429 64.585143-26.843429 64.585143-64.585143 26.843429-64.585142-26.843429-26.843429-64.585143 26.843429-64.585143 64.585142-26.843428z"  horiz-adv-x="1170" />

    
    <glyph glyph-name="calculator" unicode="&#59288;" d="M253.641509 18.285714q0 30.281143-21.430858 51.712T180.498651 91.428571t-51.712-21.430857T107.355794 18.285714t21.430857-51.712T180.498651-54.857143t51.712 21.430857T253.641509 18.285714z m219.428571 0q0 30.281143-21.430857 51.712T399.927223 91.428571t-51.712-21.430857T326.784366 18.285714t21.430857-51.712T399.927223-54.857143t51.712 21.430857T473.07008 18.285714zM253.641509 237.714286q0 30.281143-21.430858 51.712T180.498651 310.857143t-51.712-21.430857T107.355794 237.714286t21.430857-51.712T180.498651 164.571429t51.712 21.430857T253.641509 237.714286z m438.857142-219.428572q0 30.281143-21.430857 51.712T619.355794 91.428571t-51.712-21.430857T546.212937 18.285714t21.430857-51.712T619.355794-54.857143t51.712 21.430857T692.498651 18.285714zM473.07008 237.714286q0 30.281143-21.430857 51.712T399.927223 310.857143t-51.712-21.430857T326.784366 237.714286t21.430857-51.712T399.927223 164.571429t51.712 21.430857T473.07008 237.714286zM253.641509 457.142857q0 30.281143-21.430858 51.712T180.498651 530.285714t-51.712-21.430857T107.355794 457.142857t21.430857-51.712T180.498651 384t51.712 21.430857T253.641509 457.142857z m438.857142-219.428571q0 30.281143-21.430857 51.712T619.355794 310.857143t-51.712-21.430857T546.212937 237.714286t21.430857-51.712T619.355794 164.571429t51.712 21.430857T692.498651 237.714286zM473.07008 457.142857q0 30.281143-21.430857 51.712T399.927223 530.285714t-51.712-21.430857T326.784366 457.142857t21.430857-51.712T399.927223 384t51.712 21.430857T473.07008 457.142857z m438.857143-438.857143V237.714286q0 29.696-21.723429 51.419428T838.784366 310.857143t-51.419429-21.723429T765.641509 237.714286v-219.428572q0-29.696 21.723428-51.419428T838.784366-54.857143t51.419428 21.723429T911.927223 18.285714zM692.498651 457.142857q0 30.281143-21.430857 51.712T619.355794 530.285714t-51.712-21.430857T546.212937 457.142857t21.430857-51.712T619.355794 384t51.712 21.430857T692.498651 457.142857z m219.428572 182.857143v146.285714q0 14.848-10.825143 25.746286T875.355794 822.857143h-731.428571q-14.848 0-25.746286-10.825143T107.355794 786.285714v-146.285714q0-14.848 10.825143-25.746286T143.927223 603.428571h731.428571q14.848 0 25.746286 10.825143T911.927223 640zM911.927223 457.142857q0 30.281143-21.430857 51.712T838.784366 530.285714t-51.712-21.430857T765.641509 457.142857t21.430857-51.712T838.784366 384t51.712 21.430857T911.927223 457.142857z m73.142857 365.714286v-877.714286q0-29.696-21.723429-51.419428T911.927223-128H107.355794q-29.696 0-51.419428 21.723429T34.212937-54.857143V822.857143Q34.212937 852.553143 55.936366 874.276571T107.355794 896h804.571429q29.696 0 51.419428-21.723429T985.07008 822.857143z"  horiz-adv-x="1024" />

    
    <glyph glyph-name="calendar-check-o" unicode="&#59289;" d="M778.807223 345.161143l-292.571429-292.571429q-5.705143-5.12-13.165714-5.12t-13.165714 5.12l-164.571429 164.571429q-5.12 5.705143-5.12 13.165714t5.12 12.580572l26.258286 26.258285q5.12 5.12 12.580571 5.12t13.165715-5.12L473.07008 143.433143 726.802651 397.165714q5.705143 5.12 13.165715 5.12t12.580571-5.12l26.258286-26.258285q5.12-5.12 5.12-12.580572t-5.12-13.165714zM107.355794-54.857143h804.571429V530.285714H107.355794v-585.142857z m219.428572 694.857143V804.571429q0 7.972571-5.12 13.165714T308.498651 822.857143h-36.571428q-7.972571 0-13.165714-5.12T253.641509 804.571429V640q0-7.972571 5.12-13.165714t13.165714-5.12h36.571428q7.972571 0 13.165715 5.12T326.784366 640z m438.857143 0V804.571429q0 7.972571-5.12 13.165714T747.355794 822.857143h-36.571428q-7.972571 0-13.165715-5.12T692.498651 804.571429V640q0-7.972571 5.12-13.165714t13.165715-5.12h36.571428q7.972571 0 13.165715 5.12T765.641509 640z m219.428571 36.571429v-731.428572q0-29.696-21.723429-51.419428T911.927223-128H107.355794q-29.696 0-51.419428 21.723429T34.212937-54.857143V676.571429q0 29.696 21.723429 51.419428T107.355794 749.714286h73.142857v54.857143q0 37.741714 26.843429 64.585142T271.927223 896h36.571428q37.741714 0 64.585143-26.843429T399.927223 804.571429V749.714286h219.428571v54.857143q0 37.741714 26.843429 64.585142T710.784366 896h36.571428q37.741714 0 64.585143-26.843429T838.784366 804.571429V749.714286h73.142857q29.696 0 51.419428-21.723429T985.07008 676.571429z"  horiz-adv-x="1024" />

    
    <glyph glyph-name="calendar-minus-o" unicode="&#59290;" d="M692.498651 256v-36.571429q0-7.972571-5.12-13.165714t-13.165714-5.12h-329.142857q-7.972571 0-13.165714 5.12T326.784366 219.428571v36.571429q0 7.972571 5.12 13.165714t13.165714 5.12h329.142857q7.972571 0 13.165714-5.12t5.12-13.165714zM107.355794-54.857143h804.571429V530.285714H107.355794v-585.142857z m219.428572 694.857143V804.571429q0 7.972571-5.12 13.165714T308.498651 822.857143h-36.571428q-7.972571 0-13.165714-5.12T253.641509 804.571429V640q0-7.972571 5.12-13.165714t13.165714-5.12h36.571428q7.972571 0 13.165715 5.12T326.784366 640z m438.857143 0V804.571429q0 7.972571-5.12 13.165714T747.355794 822.857143h-36.571428q-7.972571 0-13.165715-5.12T692.498651 804.571429V640q0-7.972571 5.12-13.165714t13.165715-5.12h36.571428q7.972571 0 13.165715 5.12T765.641509 640z m219.428571 36.571429v-731.428572q0-29.696-21.723429-51.419428T911.927223-128H107.355794q-29.696 0-51.419428 21.723429T34.212937-54.857143V676.571429q0 29.696 21.723429 51.419428T107.355794 749.714286h73.142857v54.857143q0 37.741714 26.843429 64.585142T271.927223 896h36.571428q37.741714 0 64.585143-26.843429T399.927223 804.571429V749.714286h219.428571v54.857143q0 37.741714 26.843429 64.585142T710.784366 896h36.571428q37.741714 0 64.585143-26.843429T838.784366 804.571429V749.714286h73.142857q29.696 0 51.419428-21.723429T985.07008 676.571429z"  horiz-adv-x="1024" />

    
    <glyph glyph-name="calendar-o" unicode="&#59291;" d="M107.355794-54.857143h804.571429V530.285714H107.355794v-585.142857z m219.428572 694.857143V804.571429q0 7.972571-5.12 13.165714T308.498651 822.857143h-36.571428q-7.972571 0-13.165714-5.12T253.641509 804.571429V640q0-7.972571 5.12-13.165714t13.165714-5.12h36.571428q7.972571 0 13.165715 5.12T326.784366 640z m438.857143 0V804.571429q0 7.972571-5.12 13.165714T747.355794 822.857143h-36.571428q-7.972571 0-13.165715-5.12T692.498651 804.571429V640q0-7.972571 5.12-13.165714t13.165715-5.12h36.571428q7.972571 0 13.165715 5.12T765.641509 640z m219.428571 36.571429v-731.428572q0-29.696-21.723429-51.419428T911.927223-128H107.355794q-29.696 0-51.419428 21.723429T34.212937-54.857143V676.571429q0 29.696 21.723429 51.419428T107.355794 749.714286h73.142857v54.857143q0 37.741714 26.843429 64.585142T271.927223 896h36.571428q37.741714 0 64.585143-26.843429T399.927223 804.571429V749.714286h219.428571v54.857143q0 37.741714 26.843429 64.585142T710.784366 896h36.571428q37.741714 0 64.585143-26.843429T838.784366 804.571429V749.714286h73.142857q29.696 0 51.419428-21.723429T985.07008 676.571429z"  horiz-adv-x="1024" />

    
    <glyph glyph-name="calendar-plus-o" unicode="&#59292;" d="M911.927223 749.714286q29.696 0 51.419428-21.723429T985.07008 676.571429v-731.428572q0-29.696-21.723429-51.419428T911.927223-128H107.355794q-29.696 0-51.419428 21.723429T34.212937-54.857143V676.571429q0 29.696 21.723429 51.419428T107.355794 749.714286h73.142857v54.857143q0 37.741714 26.843429 64.585142T271.927223 896h36.571428q37.741714 0 64.585143-26.843429T399.927223 804.571429V749.714286h219.428571v54.857143q0 37.741714 26.843429 64.585142T710.784366 896h36.571428q37.741714 0 64.585143-26.843429T838.784366 804.571429V749.714286h73.142857z m-219.428572 54.857143V640q0-7.972571 5.12-13.165714t13.165715-5.12h36.571428q7.972571 0 13.165715 5.12T765.641509 640V804.571429q0 7.972571-5.12 13.165714T747.355794 822.857143h-36.571428q-7.972571 0-13.165715-5.12T692.498651 804.571429z m-438.857142 0V640q0-7.972571 5.12-13.165714t13.165714-5.12h36.571428q7.972571 0 13.165715 5.12T326.784366 640V804.571429q0 7.972571-5.12 13.165714T308.498651 822.857143h-36.571428q-7.972571 0-13.165714-5.12T253.641509 804.571429zM911.927223-54.857143V530.285714H107.355794v-585.142857h804.571429zM546.212937 274.285714h128q7.972571 0 13.165714-5.12t5.12-13.165714v-36.571429q0-7.972571-5.12-13.165714t-13.165714-5.12H546.212937v-128q0-7.972571-5.12-13.165714t-13.165714-5.12h-36.571429q-7.972571 0-13.165714 5.12T473.07008 73.142857V201.142857H345.07008q-7.972571 0-13.165714 5.12T326.784366 219.428571v36.571429q0 7.972571 5.12 13.165714t13.165714 5.12H473.07008V402.285714q0 7.972571 5.12 13.165715t13.165714 5.12h36.571429q7.972571 0 13.165714-5.12t5.12-13.165715V274.285714z"  horiz-adv-x="1024" />

    
    <glyph glyph-name="calendar-times-o" unicode="&#59293;" d="M669.092937 104.594286l-26.258286-26.258286q-5.12-5.12-12.580571-5.12t-13.165714 5.12L509.641509 186.368l-107.446858-108.032q-5.705143-5.12-13.165714-5.12t-12.580571 5.12l-26.258286 26.258286q-5.12 5.12-5.12 12.580571t5.12 13.165714l108.032 107.446858L350.19008 345.234286q-5.12 5.705143-5.12 13.165714t5.12 12.580571l26.258286 26.258286q5.12 5.12 12.580571 5.12t13.165714-5.12L509.641509 289.792l107.446857 107.446857q5.705143 5.12 13.165714 5.12t12.580571-5.12l26.258286-26.258286q5.12-5.12 5.12-12.580571t-5.12-13.165714L561.64608 237.787429l107.446857-107.446858q5.12-5.705143 5.12-13.165714t-5.12-12.580571zM107.355794-54.857143h804.571429V530.285714H107.355794v-585.142857z m219.428572 694.857143V804.571429q0 7.972571-5.12 13.165714T308.498651 822.857143h-36.571428q-7.972571 0-13.165714-5.12T253.641509 804.571429V640q0-7.972571 5.12-13.165714t13.165714-5.12h36.571428q7.972571 0 13.165715 5.12T326.784366 640z m438.857143 0V804.571429q0 7.972571-5.12 13.165714T747.355794 822.857143h-36.571428q-7.972571 0-13.165715-5.12T692.498651 804.571429V640q0-7.972571 5.12-13.165714t13.165715-5.12h36.571428q7.972571 0 13.165715 5.12T765.641509 640z m219.428571 36.571429v-731.428572q0-29.696-21.723429-51.419428T911.927223-128H107.355794q-29.696 0-51.419428 21.723429T34.212937-54.857143V676.571429q0 29.696 21.723429 51.419428T107.355794 749.714286h73.142857v54.857143q0 37.741714 26.843429 64.585142T271.927223 896h36.571428q37.741714 0 64.585143-26.843429T399.927223 804.571429V749.714286h219.428571v54.857143q0 37.741714 26.843429 64.585142T710.784366 896h36.571428q37.741714 0 64.585143-26.843429T838.784366 804.571429V749.714286h73.142857q29.696 0 51.419428-21.723429T985.07008 676.571429z"  horiz-adv-x="1024" />

    
    <glyph glyph-name="calendar" unicode="&#59294;" d="M107.355794-54.857143h164.571429v164.571429H107.355794V-54.857143z m201.142857 0h182.857143v164.571429h-182.857143V-54.857143zM107.355794 146.285714h164.571429v182.857143H107.355794v-182.857143z m201.142857 0h182.857143v182.857143h-182.857143v-182.857143zM107.355794 365.714286h164.571429V530.285714H107.355794v-164.571428zM527.927223-54.857143h182.857143v164.571429h-182.857143V-54.857143z m-219.428572 420.571429h182.857143V530.285714h-182.857143v-164.571428z m438.857143-420.571429H911.927223v164.571429H747.355794V-54.857143z m-219.428571 201.142857h182.857143v182.857143h-182.857143v-182.857143zM326.784366 640V804.571429q0 7.460571-5.412572 12.873142T308.498651 822.857143h-36.571428q-7.460571 0-12.873143-5.412572T253.641509 804.571429V640q0-7.460571 5.412571-12.873143t12.873143-5.412571h36.571428q7.460571 0 12.873143 5.412571T326.784366 640z m420.571428-493.714286H911.927223v182.857143H747.355794v-182.857143z m-219.428571 219.428572h182.857143V530.285714h-182.857143v-164.571428z m219.428571 0H911.927223V530.285714H747.355794v-164.571428zM765.641509 640V804.571429q0 7.460571-5.412572 12.873142T747.355794 822.857143h-36.571428q-7.460571 0-12.873143-5.412572T692.498651 804.571429V640q0-7.460571 5.412572-12.873143t12.873143-5.412571h36.571428q7.460571 0 12.873143 5.412571T765.641509 640z m219.428571 36.571429v-731.428572q0-29.696-21.723429-51.419428T911.927223-128H107.355794q-29.696 0-51.419428 21.723429T34.212937-54.857143V676.571429q0 29.696 21.723429 51.419428T107.355794 749.714286h73.142857v54.857143q0 37.741714 26.843429 64.585142T271.927223 896h36.571428q37.741714 0 64.585143-26.843429T399.927223 804.571429V749.714286h219.428571v54.857143q0 37.741714 26.843429 64.585142T710.784366 896h36.571428q37.741714 0 64.585143-26.843429T838.784366 804.571429V749.714286h73.142857q29.696 0 51.419428-21.723429T985.07008 676.571429z"  horiz-adv-x="1024" />

    
    <glyph glyph-name="camera" unicode="&#59296;" d="M548.571429 512q68.022857 0 116.297142-48.274286t48.274286-116.297143-48.274286-116.297142-116.297142-48.274286-116.297143 48.274286-48.274286 116.297142 48.274286 116.297143 116.297143 48.274286zM950.857143 749.714286q60.562286 0 103.424-42.861715T1097.142857 603.428571v-512q0-60.562286-42.861714-103.424T950.857143-54.857143H146.285714q-60.562286 0-103.424 42.861714T0 91.428571V603.428571q0 60.562286 42.861714 103.424T146.285714 749.714286h128L303.396571 827.392q10.825143 28.013714 39.716572 48.274286T402.285714 895.926857h292.571429q30.281143 0 59.172571-20.260571t39.716572-48.274286L822.857143 749.714286H950.857143z m-402.285714-658.285715q105.691429 0 180.882285 75.117715T804.571429 347.428571 729.453714 528.310857 548.571429 603.428571 367.689143 528.310857 292.571429 347.428571t75.117714-180.882285T548.571429 91.428571z"  horiz-adv-x="1097" />

    
    <glyph glyph-name="caret-down" unicode="&#59297;" d="M804.571429 493.714286q0-14.848-10.825143-25.746286l-256-256Q526.921143 201.142857 512 201.142857t-25.746286 10.825143l-256 256Q219.428571 478.793143 219.428571 493.714286t10.825143 25.746285T256 530.285714h512q14.848 0 25.746286-10.825143T804.571429 493.714286z"  horiz-adv-x="1024" />

    
    <glyph glyph-name="caret-left" unicode="&#59298;" d="M604.84352 640v-512q0-14.848-10.825143-25.746286T568.272091 91.428571t-25.746285 10.825143l-256 256Q275.700663 369.078857 275.700663 384t10.825143 25.746286l256 256Q553.350949 676.571429 568.272091 676.571429t25.746286-10.825143T604.84352 640z"  horiz-adv-x="1024" />

    
    <glyph glyph-name="caret-right" unicode="&#59299;" d="M635.296549 384q0-14.848-10.825143-25.746286l-256-256Q357.646263 91.428571 342.72512 91.428571t-25.746286 10.825143T306.153691 128v512q0 14.848 10.825143 25.746286T342.72512 676.571429t25.746286-10.825143l256-256Q635.296549 398.921143 635.296549 384z"  horiz-adv-x="1024" />

    
    <glyph glyph-name="caret-square-o-down" unicode="&#59300;" d="M727.405714 510.317714q10.313143-19.968-2.852571-37.741714l-182.857143-256Q530.870857 201.142857 512 201.142857t-29.696 15.433143l-182.857143 256q-13.165714 17.700571-2.852571 37.741714Q306.322286 530.285714 329.142857 530.285714h365.714286q22.820571 0 32.548571-19.968zM804.571429 109.714286v548.571428q0 7.460571-5.412572 12.873143T786.285714 676.571429h-548.571428q-7.460571 0-12.873143-5.412572T219.428571 658.285714v-548.571428q0-7.460571 5.412572-12.873143T237.714286 91.428571h548.571428q7.460571 0 12.873143 5.412572T804.571429 109.714286z m146.285714 548.571428v-548.571428q0-68.022857-48.274286-116.297143T786.285714-54.857143h-548.571428q-68.022857 0-116.297143 48.274286T73.142857 109.714286v548.571428q0 68.022857 48.274286 116.297143T237.714286 822.857143h548.571428q68.022857 0 116.297143-48.274286T950.857143 658.285714z"  horiz-adv-x="1024" />

    
    <glyph glyph-name="caret-square-o-left" unicode="&#59301;" d="M658.285714 566.857143v-365.714286q0-14.848-10.825143-25.746286T621.714286 164.571429q-11.410286 0-21.138286 6.875428l-256 182.857143Q329.142857 365.129143 329.142857 384t15.433143 29.696l256 182.857143Q610.304 603.428571 621.714286 603.428571q14.848 0 25.746285-10.825142T658.285714 566.857143z m146.285715-457.142857v548.571428q0 7.460571-5.412572 12.873143T786.285714 676.571429h-548.571428q-7.460571 0-12.873143-5.412572T219.428571 658.285714v-548.571428q0-7.460571 5.412572-12.873143T237.714286 91.428571h548.571428q7.460571 0 12.873143 5.412572T804.571429 109.714286z m146.285714 548.571428v-548.571428q0-68.022857-48.274286-116.297143T786.285714-54.857143h-548.571428q-68.022857 0-116.297143 48.274286T73.142857 109.714286v548.571428q0 68.022857 48.274286 116.297143T237.714286 822.857143h548.571428q68.022857 0 116.297143-48.274286T950.857143 658.285714z"  horiz-adv-x="1024" />

    
    <glyph glyph-name="caret-square-o-right" unicode="&#59302;" d="M694.857143 384q0-18.870857-15.433143-29.696l-256-182.857143q-17.700571-13.165714-37.741714-2.852571Q365.714286 178.322286 365.714286 201.142857v365.714286q0 22.820571 19.968 32.548571 19.968 10.313143 37.741714-2.852571l256-182.857143Q694.857143 402.870857 694.857143 384z m109.714286-274.285714v548.571428q0 7.972571-5.12 13.165715T786.285714 676.571429h-548.571428q-7.972571 0-13.165715-5.12T219.428571 658.285714v-548.571428q0-7.972571 5.12-13.165715t13.165715-5.12h548.571428q7.972571 0 13.165715 5.12t5.12 13.165715z m146.285714 548.571428v-548.571428q0-68.022857-48.274286-116.297143T786.285714-54.857143h-548.571428q-68.022857 0-116.297143 48.274286T73.142857 109.714286v548.571428q0 68.022857 48.274286 116.297143T237.714286 822.857143h548.571428q68.022857 0 116.297143-48.274286T950.857143 658.285714z"  horiz-adv-x="1024" />

    
    <glyph glyph-name="caret-square-o-up" unicode="&#59303;" d="M727.405714 257.682286Q717.677714 237.714286 694.857143 237.714286h-365.714286q-22.820571 0-32.548571 19.968-10.313143 19.968 2.852571 37.741714l182.857143 256Q493.129143 566.857143 512 566.857143t29.696-15.433143l182.857143-256q13.165714-17.700571 2.852571-37.741714zM804.571429 109.714286v548.571428q0 7.460571-5.412572 12.873143T786.285714 676.571429h-548.571428q-7.460571 0-12.873143-5.412572T219.428571 658.285714v-548.571428q0-7.460571 5.412572-12.873143T237.714286 91.428571h548.571428q7.460571 0 12.873143 5.412572T804.571429 109.714286z m146.285714 548.571428v-548.571428q0-68.022857-48.274286-116.297143T786.285714-54.857143h-548.571428q-68.022857 0-116.297143 48.274286T73.142857 109.714286v548.571428q0 68.022857 48.274286 116.297143T237.714286 822.857143h548.571428q68.022857 0 116.297143-48.274286T950.857143 658.285714z"  horiz-adv-x="1024" />

    
    <glyph glyph-name="caret-up" unicode="&#59304;" d="M779.524754 201.142857q0-14.848-10.825143-25.746286T742.953326 164.571429h-512q-14.848 0-25.746286 10.825142T194.381897 201.142857t10.825143 25.746286l256 256Q472.032183 493.714286 486.953326 493.714286t25.746285-10.825143l256-256Q779.524754 216.064 779.524754 201.142857z"  horiz-adv-x="1024" />

    
    <glyph glyph-name="chain-broken" unicode="&#59317;" d="M287.451429 169.691429l-146.285715-146.285715q-5.705143-5.12-13.165714-5.12-6.875429 0-13.165714 5.12-5.12 5.705143-5.12 13.165715t5.12 13.165714l146.285714 146.285714q5.705143 5.12 13.165714 5.12t13.165715-5.12q5.12-5.705143 5.12-13.165714t-5.12-13.165714z m96.548571-23.405715v-182.857143q0-7.972571-5.12-13.165714T365.714286-54.857143t-13.165715 5.12-5.12 13.165714v182.857143q0 7.972571 5.12 13.165715T365.714286 164.571429t13.165714-5.12 5.12-13.165715zM256 274.285714q0-7.972571-5.12-13.165714t-13.165714-5.12H54.857143q-7.972571 0-13.165714 5.12T36.571429 274.285714t5.12 13.165715 13.165714 5.12h182.857143q7.972571 0 13.165714-5.12T256 274.285714z m722.285714-73.142857q0-68.534857-48.566857-116.004571l-83.968-83.456q-47.396571-47.396571-116.004571-47.396572-69.12 0-116.589715 48.566857L422.326857 194.267429q-11.995429 11.995429-23.990857 32.036571l136.557714 10.313143 156.013715-156.598857q15.433143-15.433143 38.838857-15.725715t38.838857 15.140572l83.968 83.456q16.018286 16.018286 16.018286 38.253714 0 22.820571-16.018286 38.838857L695.954286 397.092571l10.313143 136.557715q19.968-11.995429 32.036571-23.990857l192-192q47.981714-49.152 47.981714-116.589715z m-352.548571 413.696l-136.557714-10.313143-156.013715 156.598857q-16.018286 16.018286-38.838857 16.018286-22.308571 0-38.838857-15.433143L171.52 678.253714q-16.018286-16.018286-16.018286-38.253714 0-22.820571 16.018286-38.838857l156.598857-156.598857-10.313143-137.142857q-19.968 11.995429-32.036571 23.990857L93.769143 523.410286Q45.787429 572.562286 45.787429 640q0 68.534857 48.566857 116.004571L178.322286 839.460571Q225.718857 886.857143 294.326857 886.857143q69.12 0 116.589714-48.566857l190.829715-191.414857q11.995429-11.995429 23.990857-32.036572zM987.428571 566.857143q0-7.972571-5.12-13.165714t-13.165714-5.12h-182.857143q-7.972571 0-13.165714 5.12T768 566.857143t5.12 13.165714 13.165714 5.12h182.857143q7.972571 0 13.165714-5.12t5.12-13.165714zM676.571429 877.714286v-182.857143q0-7.972571-5.12-13.165714T658.285714 676.571429t-13.165714 5.12-5.12 13.165714V877.714286q0 7.972571 5.12 13.165714T658.285714 896t13.165715-5.12 5.12-13.165714z m232.594285-86.308572l-146.285714-146.285714q-6.290286-5.12-13.165714-5.12t-13.165715 5.12q-5.12 5.705143-5.12 13.165714t5.12 13.165715l146.285715 146.285714q5.705143 5.12 13.165714 5.12t13.165714-5.12q5.12-5.705143 5.12-13.165714t-5.12-13.165715z"  horiz-adv-x="1024" />

    
    <glyph glyph-name="chain" unicode="&#59318;" d="M868.571429 201.142857q0 22.820571-16.018286 38.838857L733.696 358.838857Q717.677714 374.857143 694.857143 374.857143q-23.990857 0-41.179429-18.285714l10.825143-10.605715q9.142857-8.923429 12.288-12.288t8.557714-10.825143 7.460572-14.555428 1.974857-15.725714q0-22.820571-16.018286-38.838858T639.926857 237.714286q-8.557714 0-15.725714 1.974857t-14.555429 7.460571-10.825143 8.557715-12.288 12.288-10.605714 10.825142q-18.870857-17.700571-18.870857-41.691428 0-22.820571 16.018286-38.838857l117.686857-118.272q15.433143-15.433143 38.838857-15.433143 22.820571 0 38.838857 14.848l83.968 83.456q16.018286 16.018286 16.018286 38.253714zM466.870857 604.013714q0 22.820571-16.018286 38.838857L333.165714 761.124571q-16.018286 16.018286-38.838857 16.018286-22.308571 0-38.838857-15.433143L171.52 678.253714q-16.018286-16.018286-16.018286-38.253714 0-22.820571 16.018286-38.838857L290.377143 482.304q15.433143-15.433143 38.838857-15.433143 23.990857 0 41.179429 17.700572l-10.825143 10.605714q-9.142857 8.923429-12.288 12.288t-8.557715 10.825143-7.460571 14.555428-1.974857 15.725715q0 22.820571 16.018286 38.838857T384.146286 603.428571q8.557714 0 15.725714-1.974857t14.555429-7.460571 10.825142-8.557714 12.288-12.288 10.605715-10.825143q18.870857 17.700571 18.870857 41.691428zM978.285714 201.142857q0-68.534857-48.566857-116.004571l-83.968-83.456q-47.396571-47.396571-116.004571-47.396572-69.12 0-116.589715 48.566857l-117.686857 118.272q-47.396571 47.396571-47.396571 116.004572 0 70.290286 50.322286 119.442286l-50.322286 50.322285q-49.152-50.322286-118.857143-50.322285-68.534857 0-116.589714 47.981714L93.769143 523.410286Q45.787429 571.392 45.787429 640T94.354286 756.004571L178.322286 839.460571Q225.718857 886.857143 294.326857 886.857143q69.12 0 116.589714-48.566857l117.686858-118.272q47.396571-47.396571 47.396571-116.004572 0-70.290286-50.322286-119.442285l50.322286-50.322286Q625.152 484.571429 694.857143 484.571429q68.534857 0 116.589714-47.981715l118.857143-118.857143q47.981714-47.981714 47.981714-116.589714z"  horiz-adv-x="1024" />

    
    <glyph glyph-name="check-circle-o" unicode="&#59319;" d="M742.326857 431.396571L501.174857 190.244571q-10.825143-10.825143-25.746286-10.825142t-25.746285 10.825142L281.673143 358.253714Q270.848 369.078857 270.848 384t10.825143 25.746286l58.294857 58.294857q10.825143 10.825143 25.746286 10.825143t25.746285-10.825143l83.968-83.968 157.110858 157.110857q10.825143 10.825143 25.746285 10.825143t25.746286-10.825143l58.294857-58.294857q10.825143-10.825143 10.825143-25.746286t-10.825143-25.746286zM822.930286 384q0 84.553143-41.691429 156.013714T668.086857 653.165714 512.073143 694.857143t-156.013714-41.691429T242.907429 540.013714 201.216 384t41.691429-156.013714 113.152-113.152T512.073143 73.142857t156.013714 41.691429T781.238857 227.986286 822.930286 384zM950.930286 384q0-119.442286-58.88-220.306286t-159.744-159.744-220.306286-58.88-220.306286 58.88-159.744 159.744T73.069714 384t58.88 220.306286 159.744 159.744T512 822.930286t220.306286-58.88 159.744-159.744T950.930286 384z"  horiz-adv-x="1024" />

    
    <glyph glyph-name="check-circle" unicode="&#59320;" d="M806.912 476.598857q0 16.018286-10.313143 26.258286l-52.004571 51.419428q-10.825143 10.825143-25.746286 10.825143t-25.746286-10.825143l-233.179428-232.594285-129.170286 129.170285q-10.825143 10.825143-25.746286 10.825143t-25.746285-10.825143l-52.004572-51.419428q-10.313143-10.313143-10.313143-26.258286 0-15.433143 10.313143-25.746286l206.848-206.848q10.825143-10.825143 25.746286-10.825142 15.433143 0 26.258286 10.825142l310.272 310.272q10.313143 10.313143 10.313142 25.746286zM950.930286 384q0-119.442286-58.88-220.306286t-159.744-159.744-220.306286-58.88-220.306286 58.88-159.744 159.744T73.069714 384t58.88 220.306286 159.744 159.744T512 822.930286t220.306286-58.88 159.744-159.744T950.930286 384z"  horiz-adv-x="1024" />

    
    <glyph glyph-name="check" unicode="&#59321;" d="M954.88 572.562286q0-22.820571-16.018286-38.838857l-491.446857-491.446858q-16.018286-16.018286-38.838857-16.018285t-38.838857 16.018285L85.138286 326.875429Q69.12 342.893714 69.12 365.714286t16.018286 38.838857l77.677714 77.677714q16.018286 16.018286 38.838857 16.018286t38.838857-16.018286l168.009143-168.594286 374.857143 375.442286q16.018286 16.018286 38.838857 16.018286t38.838857-16.018286l77.677715-77.677714q16.018286-16.018286 16.018285-38.838857z"  horiz-adv-x="1024" />

    
    <glyph glyph-name="check-square" unicode="&#59322;" d="M464.603429 153.746286l350.866285 350.866285q10.825143 10.825143 10.825143 25.746286t-10.825143 25.746286l-58.294857 58.294857Q746.349714 625.225143 731.428571 625.225143t-25.746285-10.825143L438.857143 347.574857 318.317714 468.114286Q307.492571 478.939429 292.571429 478.939429t-25.746286-10.825143l-58.294857-58.294857q-10.825143-10.825143-10.825143-25.746286t10.825143-25.746286l204.580571-204.580571q10.825143-10.825143 25.746286-10.825143t25.746286 10.825143zM950.857143 658.285714v-548.571428q0-68.022857-48.274286-116.297143T786.285714-54.857143h-548.571428q-68.022857 0-116.297143 48.274286T73.142857 109.714286v548.571428q0 68.022857 48.274286 116.297143T237.714286 822.857143h548.571428q68.022857 0 116.297143-48.274286T950.857143 658.285714z"  horiz-adv-x="1024" />

    
    <glyph glyph-name="chevron-circle-down" unicode="&#59323;" d="M537.819429 153.746286l259.437714 259.437714q10.825143 10.825143 10.825143 25.746286t-10.825143 25.746285L738.962286 522.971429q-10.825143 10.825143-25.746286 10.825142t-25.746286-10.825142L512.073143 347.574857 336.676571 522.971429q-10.825143 10.825143-25.746285 10.825142t-25.746286-10.825142l-58.294857-58.294858q-10.825143-10.825143-10.825143-25.746285t10.825143-25.746286l259.437714-259.437714q10.825143-10.825143 25.746286-10.825143t25.746286 10.825143zM950.930286 384q0-119.442286-58.88-220.306286t-159.744-159.744-220.306286-58.88-220.306286 58.88-159.744 159.744T73.069714 384t58.88 220.306286 159.744 159.744T512 822.930286t220.306286-58.88 159.744-159.744T950.930286 384z"  horiz-adv-x="1024" />

    
    <glyph glyph-name="chevron-circle-right" unicode="&#59324;" d="M482.962286 98.889143l259.437714 259.437714q10.825143 10.825143 10.825143 25.746286t-10.825143 25.746286L482.962286 669.257143q-10.825143 10.825143-25.746286 10.825143t-25.746286-10.825143l-58.294857-58.294857q-10.825143-10.825143-10.825143-25.746286t10.825143-25.746286l175.396572-175.396571-175.396572-175.396572q-10.825143-10.825143-10.825143-25.746285t10.825143-25.746286l58.294857-58.294857q10.825143-10.825143 25.746286-10.825143t25.746286 10.825143zM950.930286 384q0-119.442286-58.88-220.306286t-159.744-159.744-220.306286-58.88-220.306286 58.88-159.744 159.744T73.069714 384t58.88 220.306286 159.744 159.744T512 822.930286t220.306286-58.88 159.744-159.744T950.930286 384z"  horiz-adv-x="1024" />

    
    <glyph glyph-name="chevron-circle-up" unicode="&#59325;" d="M738.962286 245.174857l58.294857 58.294857q10.825143 10.825143 10.825143 25.746286t-10.825143 25.746286L537.819429 614.4Q526.994286 625.225143 512.073143 625.225143t-25.746286-10.825143L226.889143 354.962286q-10.825143-10.825143-10.825143-25.746286t10.825143-25.746286l58.294857-58.294857q10.825143-10.825143 25.746286-10.825143t25.746285 10.825143L512.073143 420.571429l175.396571-175.396572q10.825143-10.825143 25.746286-10.825143t25.746286 10.825143zM950.930286 384q0-119.442286-58.88-220.306286t-159.744-159.744-220.306286-58.88-220.306286 58.88-159.744 159.744T73.069714 384t58.88 220.306286 159.744 159.744T512 822.930286t220.306286-58.88 159.744-159.744T950.930286 384z"  horiz-adv-x="1024" />

    
    <glyph glyph-name="check-square-o" unicode="&#59326;" d="M841.106286 364.544V182.857143q0-68.022857-48.274286-116.297143T676.534857 18.285714h-475.428571q-68.022857 0-116.297143 48.274286T36.534857 182.857143v475.428571q0 68.022857 48.274286 116.297143T201.106286 822.857143h475.428571q35.986286 0 66.852572-14.262857 8.557714-4.022857 10.313142-13.165715 1.682286-9.728-5.12-16.603428l-28.013714-28.013714q-5.705143-5.705143-13.165714-5.705143-1.682286 0-5.12 1.170285Q689.115429 749.714286 676.534857 749.714286h-475.428571q-37.741714 0-64.585143-26.843429T109.677714 658.285714v-475.428571q0-37.741714 26.843429-64.585143T201.106286 91.428571h475.428571q37.741714 0 64.585143 26.843429T767.963429 182.857143V327.972571q0 7.460571 5.12 12.580572l36.571428 36.571428q5.705143 5.705143 13.165714 5.705143 3.437714 0 6.875429-1.682285 11.410286-4.534857 11.410286-16.603429z m132.022857 279.478857L508.013714 178.907429q-13.677714-13.677714-32.548571-13.677715t-32.548572 13.677715L197.229714 424.594286Q183.552 438.272 183.552 457.142857t13.677714 32.548572l62.829715 62.829714q13.677714 13.677714 32.548571 13.677714t32.548571-13.677714l150.308572-150.308572 369.737143 369.737143q13.677714 13.677714 32.548571 13.677715t32.548572-13.677715l62.829714-62.829714q13.677714-13.677714 13.677714-32.548571t-13.677714-32.548572z"  horiz-adv-x="1024" />

    
    <glyph glyph-name="chevron-down" unicode="&#59327;" d="M961.682286 434.322286l-424.009143-423.424q-10.825143-10.825143-25.746286-10.825143t-25.746286 10.825143L62.171429 434.322286q-10.825143 10.825143-10.825143 25.965714t10.825143 25.965714l94.866285 94.281143q10.825143 10.825143 25.746286 10.825143t25.746286-10.825143l303.396571-303.396571 303.396572 303.396571q10.825143 10.825143 25.746285 10.825143t25.746286-10.825143l94.866286-94.281143q10.825143-10.825143 10.825143-25.965714t-10.825143-25.965714z"  horiz-adv-x="1024" />

    
    <glyph glyph-name="chevron-left" unicode="&#59328;" d="M778.825143 723.968L475.428571 420.571429l303.396572-303.396572q10.825143-10.825143 10.825143-25.746286t-10.825143-25.746285l-94.866286-94.866286q-10.825143-10.825143-25.746286-10.825143t-25.746285 10.825143L208.457143 394.825143q-10.825143 10.825143-10.825143 25.746286t10.825143 25.746285L632.466286 870.326857q10.825143 10.825143 25.746285 10.825143t25.746286-10.825143l94.866286-94.866286q10.825143-10.825143 10.825143-25.746285t-10.825143-25.746286z"  horiz-adv-x="1024" />

    
    <glyph glyph-name="chevron-right" unicode="&#59329;" d="M815.396571 394.825143l-424.009142-424.009143q-10.825143-10.825143-25.746286-10.825143t-25.746286 10.825143L245.028571 65.682286Q234.203429 76.507429 234.203429 91.428571t10.825142 25.746286L548.425143 420.571429 245.028571 723.968Q234.203429 734.793143 234.203429 749.714286t10.825142 25.746285L339.894857 870.326857q10.825143 10.825143 25.746286 10.825143t25.746286-10.825143l424.009142-424.009143q10.825143-10.825143 10.825143-25.746285t-10.825143-25.746286z"  horiz-adv-x="1024" />

    
    <glyph glyph-name="chevron-up" unicode="&#59330;" d="M961.682286 135.460571l-94.866286-94.281142q-10.825143-10.825143-25.746286-10.825143t-25.746285 10.825143L511.926857 344.576l-303.396571-303.396571q-10.825143-10.825143-25.746286-10.825143t-25.746286 10.825143L62.171429 135.460571q-10.825143 10.825143-10.825143 25.965715t10.825143 25.965714l424.009142 423.424q10.825143 10.825143 25.746286 10.825143t25.746286-10.825143l424.009143-423.424q10.825143-10.825143 10.825143-25.965714t-10.825143-25.965715z"  horiz-adv-x="1024" />

    
    <glyph glyph-name="clipboard" unicode="&#59338;" d="M438.857143-54.857143h512V310.857143H713.142857q-22.820571 0-38.838857 16.018286T658.285714 365.714286V603.428571H438.857143v-658.285714zM585.142857 768v36.571429q0 7.460571-5.412571 12.873142T566.857143 822.857143h-402.285714q-7.460571 0-12.873143-5.412572T146.285714 804.571429v-36.571429q0-7.460571 5.412572-12.873143T164.571429 749.714286h402.285714q7.460571 0 12.873143 5.412571T585.142857 768zM731.428571 384h170.861715L731.428571 554.861714V384z m292.571429-73.142857v-384q0-22.820571-16.018286-38.838857T969.142857-128h-548.571428q-22.820571 0-38.838858 16.018286T365.714286-73.142857V18.285714H54.857143q-22.820571 0-38.838857 16.018286T0 73.142857V841.142857Q0 863.963429 16.018286 879.981714T54.857143 896h621.714286q22.820571 0 38.838857-16.018286T731.428571 841.142857v-187.465143q11.995429-7.460571 20.553143-16.018285l233.179429-233.179429q16.018286-16.018286 27.428571-43.446857t11.410286-50.322286z"  horiz-adv-x="1024" />

    
    <glyph glyph-name="clone" unicode="&#59340;" d="M950.857143-36.571429v621.714286q0 7.460571-5.412572 12.873143T932.571429 603.428571h-621.714286q-7.460571 0-12.873143-5.412571T292.571429 585.142857v-621.714286q0-7.460571 5.412571-12.873142T310.857143-54.857143h621.714286q7.460571 0 12.873142 5.412572T950.857143-36.571429z m73.142857 621.714286v-621.714286q0-37.741714-26.843429-64.585142T932.571429-128h-621.714286q-37.741714 0-64.585143 26.843429T219.428571-36.571429v621.714286q0 37.741714 26.843429 64.585143T310.857143 676.571429h621.714286q37.741714 0 64.585142-26.843429T1024 585.142857z m-219.428571 219.428572V713.142857h-73.142858V804.571429q0 7.460571-5.412571 12.873142T713.142857 822.857143h-621.714286q-7.460571 0-12.873142-5.412572T73.142857 804.571429v-621.714286q0-7.460571 5.412572-12.873143T91.428571 164.571429H182.857143v-73.142858H91.428571q-37.741714 0-64.585142 26.843429T0 182.857143v621.714286Q0 842.313143 26.843429 869.156571T91.428571 896h621.714286q37.741714 0 64.585143-26.843429T804.571429 804.571429z"  horiz-adv-x="1024" />

    
    <glyph glyph-name="close" unicode="&#59341;" d="M851.456 140.580571q0-22.820571-16.018286-38.838857L757.76 24.064q-16.018286-16.018286-38.838857-16.018286t-38.838857 16.018286L512.073143 192.073143l-168.009143-168.009143q-16.018286-16.018286-38.838857-16.018286t-38.838857 16.018286L188.708571 101.741714q-16.018286 16.018286-16.018285 38.838857t16.018285 38.838858L356.717714 347.428571 188.708571 515.437714q-16.018286 16.018286-16.018285 38.838857t16.018285 38.838858l77.677715 77.677714q16.018286 16.018286 38.838857 16.018286t38.838857-16.018286l168.009143-168.009143 168.009143 168.009143q16.018286 16.018286 38.838857 16.018286t38.838857-16.018286l77.677714-77.677714q16.018286-16.018286 16.018286-38.838858t-16.018286-38.838857L667.428571 347.428571l168.009143-168.009142q16.018286-16.018286 16.018286-38.838858z"  horiz-adv-x="1024" />

    
    <glyph glyph-name="cloud-upload" unicode="&#59343;" d="M731.428571 402.285714q0 7.972571-5.12 13.165715L525.165714 616.594286q-5.12 5.12-13.165714 5.12t-13.165714-5.12L298.276571 416.036571Q292.571429 409.161143 292.571429 402.358857q0-7.972571 5.12-13.165714t13.165714-5.12H438.857143v-201.142857q0-7.460571 5.412571-12.873143t12.873143-5.412572h109.714286q7.460571 0 12.873143 5.412572T585.142857 182.930286v201.142857h128q7.460571 0 12.873143 5.412571T731.428571 402.358857zM1097.142857 237.714286q0-90.843429-64.292571-155.136T877.714286 18.285714H256q-105.691429 0-180.882286 75.117715T0 274.285714q0 74.313143 40.009143 137.142857t107.446857 94.281143Q146.285714 522.825143 146.285714 530.285714q0 121.124571 85.723429 206.848T438.857143 822.857143q89.161143 0 163.108571-49.737143t107.739429-132.022857q40.594286 35.401143 94.866286 35.401143 60.562286 0 103.424-42.861715T950.857143 530.212571q0-43.446857-23.405714-78.848 74.313143-17.700571 122.002285-77.458285T1097.142857 237.641143z"  horiz-adv-x="1097" />

    
    <glyph glyph-name="code" unicode="&#59346;" d="M352.548571 96.548571l-28.598857-28.598857q-5.705143-5.705143-13.165714-5.705143t-13.165714 5.705143L31.305143 334.262857Q25.6 339.968 25.6 347.428571t5.705143 13.165715l266.313143 266.313143q5.705143 5.705143 13.165714 5.705142t13.165714-5.705142l28.598857-28.598858q5.705143-5.705143 5.705143-13.165714t-5.705143-13.165714L128 347.428571l224.548571-224.548571q5.705143-5.705143 5.705143-13.165714t-5.705143-13.165715z m337.773715 609.718858L477.184-31.451429q-2.267429-7.460571-8.850286-11.117714t-13.458285-1.462857l-35.401143 9.728q-7.460571 2.267429-11.117715 8.850286t-1.462857 13.970285L620.032 726.235429q2.267429 7.460571 8.850286 11.117714t13.458285 1.462857l35.401143-9.728q7.460571-2.267429 11.117715-8.850286t1.462857-13.970285zM1065.691429 334.262857l-266.313143-266.313143q-5.705143-5.705143-13.165715-5.705143t-13.165714 5.705143l-28.598857 28.598857q-5.705143 5.705143-5.705143 13.165715t5.705143 13.165714l224.548571 224.548571-224.548571 224.548572q-5.705143 5.705143-5.705143 13.165714t5.705143 13.165714l28.598857 28.598858q5.705143 5.705143 13.165714 5.705142t13.165715-5.705142L1065.691429 360.594286q5.705143-5.705143 5.705142-13.165715t-5.705142-13.165714z"  horiz-adv-x="1097" />

    
    <glyph glyph-name="coffee" unicode="&#59349;" d="M950.857143 530.285714q0 45.714286-32.036572 77.677715T841.142857 640H804.571429v-219.428571h36.571428q45.714286 0 77.677714 32.036571T950.857143 530.285714zM0 91.428571h1024q0-60.562286-42.861714-103.424T877.714286-54.857143H146.285714q-60.562286 0-103.424 42.861714T0 91.428571z m1060.571429 438.857143q0-90.843429-64.292572-155.136T841.142857 310.857143H804.571429v-18.285714q0-52.589714-37.741715-90.258286T676.571429 164.571429h-402.285715q-52.589714 0-90.258285 37.741714T146.285714 292.571429V713.142857q0 14.848 10.825143 25.746286T182.857143 749.714286h658.285714q90.843429 0 155.136-64.292572T1060.571429 530.285714z"  horiz-adv-x="1060" />

    
    <glyph glyph-name="cog" unicode="&#59351;" d="M658.212571 384q0 60.562286-42.861714 103.424T511.926857 530.285714t-103.424-42.861714T365.641143 384t42.861714-103.424T511.926857 237.714286t103.424 42.861714T658.212571 384z m292.571429 62.317714v-126.829714q0-6.875429-4.534857-13.165714t-11.410286-7.460572l-105.691428-16.018285q-10.825143-30.866286-22.308572-52.004572 19.968-28.598857 61.147429-78.848 5.705143-6.875429 5.705143-14.262857t-5.12-13.165714q-15.433143-21.138286-56.539429-61.732572t-53.686857-40.594285q-6.875429 0-14.848 5.12l-78.848 61.732571q-25.161143-13.165714-52.004572-21.723429-9.142857-77.677714-16.603428-106.276571-4.022857-16.018286-20.553143-16.018286H448.658286q-7.972571 0-13.970286 4.827429t-6.582857 12.288l-16.018286 105.179428q-28.013714 9.142857-51.419428 21.138286l-80.603429-61.147428q-5.705143-5.12-14.262857-5.12-7.972571 0-14.262857 6.290285-71.972571 65.170286-94.281143 96.036572-4.022857 5.705143-4.022857 13.165714 0 6.875429 4.534857 13.165714 8.557714 11.995429 29.110857 38.034286t30.866286 40.301714q-15.433143 28.598857-23.405715 56.539429l-104.594285 15.433143q-7.460571 1.170286-11.995429 7.168T73.216 321.828571V448.658286q0 6.875429 4.534857 13.165714t10.825143 7.460571l106.276571 16.018286q7.972571 26.258286 22.308572 52.589714-22.820571 32.548571-61.147429 78.848-5.705143 6.875429-5.705143 13.677715 0 5.705143 5.12 13.165714 14.848 20.553143 56.32 61.44t53.979429 40.886857q7.460571 0 14.848-5.705143l78.848-61.147428q25.161143 13.165714 52.004571 21.723428 9.142857 77.677714 16.603429 106.276572 4.022857 16.018286 20.553143 16.018285h126.829714q7.972571 0 13.970286-4.827428t6.582857-12.288l16.018286-105.179429q28.013714-9.142857 51.419428-21.138285l81.115429 61.147428q5.12 5.12 13.677714 5.12 7.460571 0 14.262857-5.705143 73.728-68.022857 94.281143-97.133714 4.022857-4.534857 4.022857-12.580571 0-6.875429-4.534857-13.165715-8.557714-11.995429-29.110857-38.034285t-30.866286-40.301715q14.848-28.598857 23.405715-56.027428l104.594285-16.018286q7.460571-1.170286 11.995429-7.168t4.534857-13.458286z"  horiz-adv-x="1024" />

    
    <glyph glyph-name="dashboard" unicode="&#59377;" d="M219.428571 237.714286q0 30.281143-21.430857 51.712T146.285714 310.857143t-51.712-21.430857T73.142857 237.714286t21.430857-51.712T146.285714 164.571429t51.712 21.430857T219.428571 237.714286z m109.714286 256q0 30.281143-21.430857 51.712T256 566.857143t-51.712-21.430857T182.857143 493.714286t21.430857-51.712 51.712-21.430857 51.712 21.430857T329.142857 493.714286z m244.589714-274.870857l57.709715 218.258285q3.437714 14.848-4.315429 27.721143t-22.016 16.822857-27.428571-3.730285-17.115429-22.601143l-57.709714-218.258286q-34.304-2.852571-61.147429-24.868571t-35.986285-56.32q-11.410286-44.032 11.410285-83.456t66.852572-50.834286 83.456 11.410286 50.834285 66.852571q9.142857 34.304-3.437714 66.852571t-41.179428 52.004572zM950.857143 237.714286q0 30.281143-21.430857 51.712T877.714286 310.857143t-51.712-21.430857T804.571429 237.714286t21.430857-51.712T877.714286 164.571429t51.712 21.430857T950.857143 237.714286zM585.142857 603.428571q0 30.281143-21.430857 51.712T512 676.571429t-51.712-21.430858T438.857143 603.428571t21.430857-51.712T512 530.285714t51.712 21.430857T585.142857 603.428571z m256-109.714285q0 30.281143-21.430857 51.712T768 566.857143t-51.712-21.430857T694.857143 493.714286t21.430857-51.712 51.712-21.430857 51.712 21.430857 21.430857 51.712zM1024 237.714286q0-149.138286-80.603429-275.968-10.825143-16.603429-30.866285-16.603429H111.396571q-19.968 0-30.866285 16.603429Q-0.073143 88.064-0.073143 237.714286q0 104.009143 40.594286 198.875428t109.129143 163.401143T313.051429 709.12 511.926857 749.714286t198.875429-40.594286 163.401143-109.129143 109.129142-163.401143T1023.926857 237.714286z"  horiz-adv-x="1024" />

    
    <glyph glyph-name="desktop" unicode="&#59381;" d="M1024 329.142857v475.428572q0 7.460571-5.412571 12.873142T1005.714286 822.857143H91.428571q-7.460571 0-12.873142-5.412572T73.142857 804.571429v-475.428572q0-7.460571 5.412572-12.873143T91.428571 310.857143h914.285715q7.460571 0 12.873143 5.412571T1024 329.142857z m73.142857 475.428572v-621.714286q0-37.741714-26.843428-64.585143T1005.714286 91.428571H694.857143q0-21.138286 9.142857-44.251428t18.285714-40.594286 9.142857-24.868571q0-14.848-10.825142-25.746286T694.857143-54.857143h-292.571429q-14.848 0-25.746285 10.825143T365.714286-18.285714q0 7.972571 9.142857 25.161143t18.285714 40.009142T402.285714 91.428571H91.428571q-37.741714 0-64.585142 26.843429T0 182.857143v621.714286Q0 842.313143 26.843429 869.156571T91.428571 896h914.285715q37.741714 0 64.585143-26.843429T1097.142857 804.571429z"  horiz-adv-x="1097" />

    
    <glyph glyph-name="download" unicode="&#59387;" d="M768 128q0 14.848-10.825143 25.746286T731.428571 164.571429t-25.746285-10.825143T694.857143 128t10.825143-25.746286T731.428571 91.428571t25.746286 10.825143T768 128z m146.285714 0q0 14.848-10.825143 25.746286T877.714286 164.571429t-25.746286-10.825143T841.142857 128t10.825143-25.746286 25.746286-10.825143 25.746285 10.825143T914.285714 128z m73.142857 128v-182.857143q0-22.820571-16.018285-38.838857T932.571429 18.285714H91.428571q-22.820571 0-38.838857 16.018286T36.571429 73.142857v182.857143q0 22.820571 16.018285 38.838857T91.428571 310.857143h265.728l77.165715-77.677714Q467.456 201.142857 512 201.142857t77.677714 32.036572L667.355429 310.857143h265.142857q22.820571 0 38.838857-16.018286t16.018286-38.838857z m-185.709714 325.12q9.728-23.405714-7.972571-40.009143l-256-256Q527.433143 274.285714 512 274.285714t-25.746286 10.825143l-256 256q-17.700571 16.603429-7.972571 40.009143Q232.009143 603.428571 256 603.428571h146.285714V859.428571q0 14.848 10.825143 25.746286T438.857143 896h146.285714q14.848 0 25.746286-10.825143T621.714286 859.428571V603.428571h146.285714q23.990857 0 33.718857-22.308571z"  horiz-adv-x="1024" />

    
    <glyph glyph-name="edit" unicode="&#59391;" d="M507.465143 219.428571l66.267428 66.267429-86.820571 86.820571-66.267429-66.267428v-32.036572h54.857143v-54.857142h32.036572z m251.392 411.428572q-9.142857 9.142857-18.870857-0.585143L540.013714 430.299429q-9.728-9.728-0.585143-18.870858t18.870858 0.585143l199.972571 199.972572q9.728 9.728 0.585143 18.870857zM804.571429 291.401143V182.857143q0-68.022857-48.274286-116.297143T640 18.285714h-475.428571q-68.022857 0-116.297143 48.274286T0 182.857143v475.428571q0 68.022857 48.274286 116.297143T164.571429 822.857143h475.428571q35.986286 0 66.852571-14.262857 8.557714-4.022857 10.313143-13.165715 1.682286-9.728-5.12-16.603428l-28.013714-28.013714q-7.972571-7.972571-18.285714-4.534858Q652.580571 749.714286 640 749.714286h-475.428571q-37.741714 0-64.585143-26.843429T73.142857 658.285714v-475.428571q0-37.741714 26.843429-64.585143T164.571429 91.428571h475.428571q37.741714 0 64.585143 26.843429T731.428571 182.857143v71.972571q0 7.460571 5.12 12.580572l36.571429 36.571428q8.557714 8.557714 19.968 4.022857t11.410286-16.603428zM749.714286 713.142857l164.571428-164.571428L530.285714 164.571429H365.714286V329.142857z m253.732571-75.410286L950.857143 585.142857 786.285714 749.714286l52.589715 52.589714q16.018286 16.018286 38.838857 16.018286t38.838857-16.018286l86.820571-86.820571q16.018286-16.018286 16.018286-38.838858t-16.018286-38.838857z"  horiz-adv-x="1024" />

    
    <glyph glyph-name="ellipsis-h" unicode="&#59395;" d="M329.142857 475.428571v-109.714285q0-22.820571-16.018286-38.838857T274.285714 310.857143H164.571429q-22.820571 0-38.838858 16.018286T109.714286 365.714286v109.714285q0 22.820571 16.018285 38.838858T164.571429 530.285714h109.714285q22.820571 0 38.838857-16.018285T329.142857 475.428571z m292.571429 0v-109.714285q0-22.820571-16.018286-38.838857T566.857143 310.857143h-109.714286q-22.820571 0-38.838857 16.018286T402.285714 365.714286v109.714285q0 22.820571 16.018286 38.838858T457.142857 530.285714h109.714286q22.820571 0 38.838857-16.018285T621.714286 475.428571z m292.571428 0v-109.714285q0-22.820571-16.018285-38.838857T859.428571 310.857143h-109.714285q-22.820571 0-38.838857 16.018286T694.857143 365.714286v109.714285q0 22.820571 16.018286 38.838858T749.714286 530.285714h109.714285q22.820571 0 38.838858-16.018285T914.285714 475.428571z"  horiz-adv-x="1024" />

    
    <glyph glyph-name="ellipsis-v" unicode="&#59396;" d="M486.591634 182.857143v-109.714286q0-22.820571-16.018285-38.838857T431.734491 18.285714H322.020206q-22.820571 0-38.838857 16.018286T267.163063 73.142857v109.714286q0 22.820571 16.018286 38.838857T322.020206 237.714286h109.714285q22.820571 0 38.838858-16.018286T486.591634 182.857143z m0 292.571428v-109.714285q0-22.820571-16.018285-38.838857T431.734491 310.857143H322.020206q-22.820571 0-38.838857 16.018286T267.163063 365.714286v109.714285q0 22.820571 16.018286 38.838858T322.020206 530.285714h109.714285q22.820571 0 38.838858-16.018285T486.591634 475.428571z m0 292.571429v-109.714286q0-22.820571-16.018285-38.838857T431.734491 603.428571H322.020206q-22.820571 0-38.838857 16.018286T267.163063 658.285714v109.714286q0 22.820571 16.018286 38.838857T322.020206 822.857143h109.714285q22.820571 0 38.838858-16.018286T486.591634 768z"  horiz-adv-x="1024" />

    
    <glyph glyph-name="envelope-o" unicode="&#59397;" d="M950.857143 36.571429v438.857142q-18.285714-20.553143-39.424-37.741714-153.161143-117.686857-243.419429-193.170286-29.110857-24.576-47.396571-38.253714t-49.444572-27.721143-58.587428-13.970285h-1.170286q-27.428571 0-58.587428 13.970285t-49.444572 27.721143-47.396571 38.253714Q265.728 319.926857 112.566857 437.686857 91.428571 454.802286 73.142857 475.428571v-438.857142q0-7.460571 5.412572-12.873143T91.428571 18.285714h841.142858q7.460571 0 12.873142 5.412572T950.857143 36.571429z m0 600.576v13.970285l-0.292572 7.460572-1.682285 7.168-3.145143 5.12-5.12 4.315428-7.972572 1.462857h-841.142857q-7.460571 0-12.873143-5.412571t-5.412571-12.873143q0-95.963429 83.968-162.304 110.299429-86.820571 229.156571-181.174857l19.968-16.822857q16.530286-13.970286 26.258286-21.430857t25.453714-17.993143 28.891429-15.725714 24.576-5.12h1.170286q11.410286 0 24.576 5.12t28.891428 15.725714 25.453715 17.993143 26.258285 21.430857 19.968 16.822857q118.857143 94.281143 229.156572 181.174857 30.866286 24.576 57.417143 65.974857t26.550857 75.117715z m73.142857 21.138285v-621.714285q0-37.741714-26.843429-64.585143T932.571429-54.857143H91.428571q-37.741714 0-64.585142 26.843429T0 36.571429v621.714285q0 37.741714 26.843429 64.585143T91.428571 749.714286h841.142858q37.741714 0 64.585142-26.843429T1024 658.285714z"  horiz-adv-x="1024" />

    
    <glyph glyph-name="envelope-square" unicode="&#59398;" d="M786.285714 822.857143q68.022857 0 116.297143-48.274286T950.857143 658.285714v-548.571428q0-68.022857-48.274286-116.297143T786.285714-54.857143h-548.571428q-68.022857 0-116.297143 48.274286T73.142857 109.714286v548.571428q0 68.022857 48.274286 116.297143T237.714286 822.857143h548.571428zM804.571429 219.428571V468.553143q-17.700571-19.968-36.571429-31.451429-19.456-12.580571-75.702857-48.566857t-86.601143-56.539428Q549.668571 292.571429 512 292.571429q-37.741714 0-93.696 39.424-26.258286 18.285714-80.822857 52.882285t-81.408 52.882286q-6.875429 4.534857-18.870857 15.433143t-17.700572 15.433143v-249.124572q0-22.820571 16.018286-38.838857t38.838857-16.018286h475.428572q22.820571 0 38.838857 16.018286t16.018285 38.838857z m0 327.460572q0 23.405714-15.725715 40.009143t-39.131428 16.603428h-475.428572q-22.820571 0-38.838857-16.018285T219.428571 548.644571q0-21.138286 17.408-43.739428t38.546286-36.864q26.843429-18.285714 78.555429-50.834286t74.020571-47.396571l9.728-6.582857 11.995429-7.972572q3.949714-2.56 11.995428-7.460571t13.458286-7.460572 12.288-5.412571 12.873143-4.315429 11.702857-1.462857 11.702857 1.462857 12.873143 4.315429 12.288 5.412571 13.458286 7.460572 11.995428 7.460571 11.995429 7.972572 9.728 6.582857l152.576 99.401143q19.968 13.165714 38.034286 35.693714t17.993142 41.984z"  horiz-adv-x="1024" />

    
    <glyph glyph-name="envelope" unicode="&#59399;" d="M1024 490.276571v-453.705142q0-37.741714-26.843429-64.585143T932.571429-54.857143H91.428571q-37.741714 0-64.585142 26.843429T0 36.571429V490.276571q25.161143-28.013714 57.709714-49.737142 206.848-140.580571 284.013715-197.12 32.548571-23.990857 52.882285-37.449143t53.979429-27.428572 62.829714-13.970285h1.170286q29.110857 0 62.829714 13.970285t53.979429 27.428572 52.882285 37.449143q97.133714 70.290286 284.598858 197.12 32.548571 22.308571 57.124571 49.737142z m0 168.009143q0-45.129143-28.013714-86.308571t-69.705143-70.290286L658.870857 315.977143l-24.283428-17.408q-18.578286-13.385143-30.866286-21.723429t-29.696-18.578285-32.841143-15.433143-28.598857-5.12h-1.170286q-13.165714 0-28.598857 5.12t-32.841143 15.433143-29.696 18.578285-30.866286 21.723429-24.283428 17.408q-52.004571 36.571429-149.723429 104.301714T98.230857 501.686857q-35.401143 23.990857-66.852571 65.974857t-31.451429 77.970286q0 44.544 23.698286 74.313143t67.730286 29.696h841.142857q37.156571 0 64.292571-26.843429t27.136-64.585143z"  horiz-adv-x="1024" />

    
    <glyph glyph-name="exclamation" unicode="&#59404;" d="M535.7696 182.857143v-128q0-14.848-10.825143-25.746286T499.198171 18.285714h-146.285714q-14.848 0-25.746286 10.825143T316.341029 54.857143V182.857143q0 14.848 10.825142 25.746286T352.912457 219.428571h146.285714q14.848 0 25.746286-10.825142T535.7696 182.857143z m17.115429 603.428571l-16.018286-438.857143q-0.585143-14.848-11.702857-25.746285T499.198171 310.857143h-146.285714q-14.848 0-25.965714 10.825143T315.243886 347.428571l-16.018286 438.857143q-0.585143 14.848 10.020571 25.746286T334.699886 822.857143h182.857143q14.848 0 25.453714-10.825143t10.020571-25.746286z"  horiz-adv-x="1024" />

    
    <glyph glyph-name="exclamation-circle" unicode="&#59405;" d="M512 822.857143q119.442286 0 220.306286-58.88t159.744-159.744 58.88-220.306286-58.88-220.306286-159.744-159.744T512-55.003429t-220.306286 58.88-159.744 159.744-58.88 220.306286 58.88 220.306286 159.744 159.744T512 822.857143z m73.142857-712.557714V218.843429q0 7.972571-5.12 13.458285T567.442286 237.714286h-109.714286q-7.460571 0-13.165714-5.705143T438.857143 218.843429v-108.544q0-7.460571 5.705143-13.165715t13.165714-5.705143h109.714286q7.460571 0 12.580571 5.412572t5.12 13.458286z m-1.170286 196.534857l10.313143 354.889143q0 6.875429-5.705143 10.313142Q582.875429 676.571429 574.902857 676.571429H449.170286q-7.972571 0-13.677715-4.534858-5.705143-3.437714-5.705142-10.313142l9.728-354.889143q0-5.705143 5.705142-10.020572t13.677715-4.315428h105.691428q7.972571 0 13.458286 4.315428t5.997714 10.020572z"  horiz-adv-x="1024" />

    
    <glyph glyph-name="exclamation-triangle" unicode="&#59407;" d="M585.142857 110.299429V218.843429q0 7.972571-5.412571 13.458285T566.857143 237.714286h-109.714286q-7.460571 0-12.873143-5.412572T438.857143 218.843429v-108.544q0-7.972571 5.412571-13.458286T457.142857 91.428571h109.714286q7.460571 0 12.873143 5.412572T585.142857 110.299429zM583.972571 324.022857l10.313143 262.290286q0 6.875429-5.705143 10.825143Q581.12 603.428571 574.902857 603.428571H449.170286q-6.290286 0-13.677715-6.290285-5.705143-4.022857-5.705142-11.995429l9.728-261.12q0-5.705143 5.705142-9.435428T458.898286 310.857143h105.691428q7.972571 0 13.458286 3.730286t5.997714 9.435428zM576 857.746286l438.857143-804.571429q19.968-35.986286-1.170286-71.972571-9.728-16.603429-26.550857-26.258286t-36.278857-9.728H73.142857q-19.456 0-36.278857 9.728t-26.550857 26.258286q-21.138286 35.986286-1.170286 71.972571l438.857143 804.571429q9.728 17.700571 26.843429 28.013714T512 896.073143t37.156571-10.313143 26.843429-28.013714z"  horiz-adv-x="1024" />

    
    <glyph glyph-name="external-link-square" unicode="&#59410;" d="M804.571429 365.714286V640q0 14.848-10.825143 25.746286T768 676.571429H493.714286q-23.990857 0-33.718857-22.308572-9.728-23.405714 7.972571-40.009143l82.285714-82.285714-305.152-305.152q-10.825143-10.825143-10.825143-25.746286t10.825143-25.746285l58.294857-58.294858q10.825143-10.825143 25.746286-10.825142t25.746286 10.825142l305.152 305.152 82.285714-82.285714q10.313143-10.825143 25.746286-10.825143 6.875429 0 14.262857 2.852572 22.308571 9.728 22.308571 33.718857z m146.285714 292.571428v-548.571428q0-68.022857-48.274286-116.297143T786.285714-54.857143h-548.571428q-68.022857 0-116.297143 48.274286T73.142857 109.714286v548.571428q0 68.022857 48.274286 116.297143T237.714286 822.857143h548.571428q68.022857 0 116.297143-48.274286T950.857143 658.285714z"  horiz-adv-x="1024" />

    
    <glyph glyph-name="external-link" unicode="&#59411;" d="M804.571429 365.714286v-182.857143q0-68.022857-48.274286-116.297143T640 18.285714h-475.428571q-68.022857 0-116.297143 48.274286T0 182.857143v475.428571q0 68.022857 48.274286 116.297143T164.571429 822.857143h402.285714q7.972571 0 13.165714-5.12t5.12-13.165714v-36.571429q0-7.972571-5.12-13.165714T566.857143 749.714286h-402.285714q-37.741714 0-64.585143-26.843429T73.142857 658.285714v-475.428571q0-37.741714 26.843429-64.585143T164.571429 91.428571h475.428571q37.741714 0 64.585143 26.843429T731.428571 182.857143v182.857143q0 7.972571 5.12 13.165714t13.165715 5.12h36.571428q7.972571 0 13.165715-5.12t5.12-13.165714zM1024 859.428571v-292.571428q0-14.848-10.825143-25.746286T987.428571 530.285714t-25.746285 10.825143l-100.571429 100.571429-372.589714-372.589715q-5.705143-5.705143-13.165714-5.705142t-13.165715 5.705142l-65.170285 65.170286q-5.705143 5.705143-5.705143 13.165714t5.705143 13.165715l372.589714 372.589714L669.037714 833.755429Q658.212571 844.580571 658.212571 859.501714t10.825143 25.746286 25.746286 10.825143h292.571429q14.848 0 25.746285-10.825143t10.825143-25.746286z"  horiz-adv-x="1024" />

    
    <glyph glyph-name="eye-slash" unicode="&#59412;" d="M317.147429 133.12l44.544 80.603429q-49.737143 35.986286-77.677715 90.843428T256 420.571429q0 69.12 34.889143 128.585142Q160.036571 482.304 73.142857 347.428571q95.451429-147.456 244.004572-214.308571zM539.428571 566.857143q0 11.410286-7.972571 19.456T512 594.285714q-71.460571 0-122.587429-51.126857T338.285714 420.571429q0-11.410286 7.972572-19.456T365.714286 393.142857t19.456 7.972572 7.972571 19.456q0 49.152 34.889143 83.968T512 539.428571q11.410286 0 19.456 7.972572t7.972571 19.456z m207.433143 109.129143q0-4.022857-0.585143-5.12-59.977143-107.446857-180.004571-323.437715t-180.589714-324.022857l-28.013715-50.834285q-5.705143-9.142857-16.018285-9.142858-6.875429 0-76.580572 40.009143-9.142857 5.705143-9.142857 16.018286 0 6.875429 25.161143 49.737143-81.700571 37.156571-150.601143 98.889143T11.337143 308.077714q-11.410286 17.700571-11.410286 39.424t11.410286 39.424Q98.742857 521.216 228.498286 598.893714T511.926857 676.571429q50.834286 0 102.838857-9.728l30.866286 55.442285q5.705143 9.142857 16.018286 9.142857 2.852571 0 10.313143-3.437714t17.700571-8.850286 18.870857-10.605714 17.993143-10.605714 11.117714-6.582857q9.142857-5.705143 9.142857-15.433143zM768 420.571429q0-79.433143-45.129143-144.822858T603.428571 181.76l160.036572 286.866286q4.534857-25.746286 4.534857-47.981715z m256-73.142858q0-19.968-11.410286-39.424-22.308571-36.571429-62.317714-82.870857-85.723429-98.304-198.582857-152.576T512 18.285714l42.276571 75.410286q121.124571 10.313143 224.256 78.262857t172.251429 175.396572q-65.682286 102.253714-161.133714 168.009142l35.986285 64q54.272-36.571429 104.301715-87.405714t82.578285-105.179428q11.410286-19.456 11.410286-39.424z"  horiz-adv-x="1024" />

    
    <glyph glyph-name="eye" unicode="&#59413;" d="M950.857143 347.428571q-86.820571 134.875429-217.746286 201.728 34.889143-59.465143 34.889143-128.585142 0-105.691429-75.117714-180.882286T512 164.571429 331.117714 239.689143 256 420.571429q0 69.12 34.889143 128.585142Q160.036571 482.304 73.142857 347.428571q75.995429-117.174857 190.537143-186.587428T512 91.428571t248.32 69.412572T950.857143 347.428571z m-411.428572 219.428572q0 11.410286-7.972571 19.456T512 594.285714q-71.460571 0-122.587429-51.126857T338.285714 420.571429q0-11.410286 7.972572-19.456T365.714286 393.142857t19.456 7.972572 7.972571 19.456q0 49.152 34.889143 83.968T512 539.428571q11.410286 0 19.456 7.972572t7.972571 19.456zM1024 347.428571q0-19.456-11.410286-39.424-80.018286-131.437714-215.113143-210.578285T512.073143 18.285714t-285.403429 79.433143T11.556571 308.004571Q0.146286 327.972571 0.146286 347.428571t11.410285 39.424q80.018286 130.852571 215.113143 210.285715T512.073143 676.571429t285.403428-79.433143 215.113143-210.285715Q1024 366.884571 1024 347.428571z"  horiz-adv-x="1024" />

    
    <glyph glyph-name="eyedropper" unicode="&#59414;" d="M969.343799 842.366776q53.633224-53.633224 53.633224-129.333524t-53.633224-128.748965l-128.456686-127.287569 59.405737-59.405738q5.699443-5.699443 5.699443-13.152561t-5.699443-13.152562L780.385329 251.378336q-5.699443-5.699443-13.152562-5.699443t-13.152561 5.699443l-59.917226 59.917226-344.231768-344.231769q-21.117169-21.117169-51.368061-21.117168H182.674468l-146.139574-73.069788-36.534894 36.534894 73.069787 146.139575V171.439989q0 30.250892 21.117169 51.36806L438.418724 567.039817l-59.917225 59.917226q-5.699443 5.699443-5.699444 13.152562t5.699444 13.152561l119.907521 119.907521q5.699443 5.699443 13.152561 5.699444t13.152562-5.699444l59.405737-59.405737L711.40745 842.220637q53.121735 53.633224 128.748965 53.633223t129.333524-53.633223zM292.279149 55.697445L621.093193 384.511489 511.488511 494.11617 182.674468 165.302126v-109.604681H292.279149z"  horiz-adv-x="1024" />

    
    <glyph glyph-name="fast-backward" unicode="&#59418;" d="M998.4 815.396571q10.825143 10.825143 18.285714 7.460572t7.460572-18.285714v-841.142858q0-14.848-7.460572-18.285714t-18.285714 7.460572L592.676571 358.326857q-5.12 5.12-7.460571 10.825143v-405.723429q0-14.848-7.460571-18.285714t-18.285715 7.460572L153.746286 358.326857q-5.12 5.12-7.460572 10.825143V-18.285714q0-14.848-10.825143-25.746286T109.714286-54.857143h-73.142857q-14.848 0-25.746286 10.825143t-10.825143 25.746286v804.571428q0 14.848 10.825143 25.746286T36.571429 822.857143h73.142857q14.848 0 25.746285-10.825143t10.825143-25.746286v-387.437714q2.267429 6.290286 7.460572 10.825143l405.723428 405.723428q10.825143 10.825143 18.285715 7.460572t7.460571-18.285714v-405.723429q2.267429 6.290286 7.460571 10.825143z"  horiz-adv-x="1024" />

    
    <glyph glyph-name="fast-forward" unicode="&#59420;" d="M25.746286-47.396571q-10.825143-10.825143-18.285715-7.460572T0-36.571429V804.571429Q0 819.419429 7.460571 822.857143t18.285715-7.460572l405.723428-405.723428q4.534857-4.534857 7.460572-10.825143V804.571429q0 14.848 7.460571 18.285714t18.285714-7.460572L870.4 409.673143q4.534857-4.534857 7.460571-10.825143V786.285714q0 14.848 10.825143 25.746286T914.432 822.857143h73.142857q14.848 0 25.746286-10.825143t10.825143-25.746286v-804.571428q0-14.848-10.825143-25.746286t-25.746286-10.825143h-73.142857q-14.848 0-25.746286 10.825143t-10.825143 25.746286V369.152q-2.852571-5.705143-7.460571-10.825143l-405.723429-405.723428q-10.825143-10.825143-18.285714-7.460572t-7.460571 18.285714V369.152q-2.852571-5.705143-7.460572-10.825143z"  horiz-adv-x="1024" />

    
    <glyph glyph-name="file-text-o" unicode="&#59432;" d="M890.404703 678.869876q16.015998-16.015998 27.424654-43.440652t11.408656-50.315097v-658.191687q0-22.817312-16.015998-38.83331t-38.833309-16.015998H106.498404q-22.817312 0-38.833309 16.015998T51.649097-73.07756V841.07756Q51.649097 863.894872 67.665095 879.91087T106.498404 895.926868h511.926868q22.817312 0 50.315098-11.408656t43.440651-27.424654zM636.708374 818.333381v-214.789887h214.789888q-5.704328 16.601057-12.578775 23.402371L660.110745 805.754606Q653.236299 812.629053 636.708374 818.333381zM856.105603-54.721326V530.337952H618.425272q-22.817312 0-38.83331 16.015997T563.575965 585.187259V822.86759H124.781507v-877.588916h731.324096zM271.046326 438.92244q0 7.971433 5.119269 13.163833T289.329429 457.205542h402.228253q7.971433 0 13.163833-5.119269t5.119269-13.163833v-36.566205q0-7.971433-5.119269-13.163834T691.557682 384.073132h-402.228253q-7.971433 0-13.163834 5.119269T271.046326 402.356235v36.566205zM691.557682 310.940723q7.971433 0 13.163833-5.119269t5.119269-13.163834v-36.566204q0-7.971433-5.119269-13.163834T691.557682 237.808313h-402.228253q-7.971433 0-13.163834 5.119269T271.046326 256.091416v36.566204q0 7.971433 5.119269 13.163834T289.329429 310.940723h402.228253z m0-146.26482q7.971433 0 13.163833-5.119268t5.119269-13.163834v-36.566205q0-7.971433-5.119269-13.163834t-13.163833-5.119268h-402.228253q-7.971433 0-13.163834 5.119268T271.046326 109.826596v36.566205q0 7.971433 5.119269 13.163834t13.163834 5.119268h402.228253z"  horiz-adv-x="1024" />

    
    </font>
</defs>
</svg>
